<svg version="1.0" xmlns="http://www.w3.org/2000/svg"
 width="1000.000000pt" height="1000.000000pt" viewBox="0 0 1000.000000 1000.000000"
 preserveAspectRatio="xMidYMid meet">
<g transform="translate(0.000000,1000.000000) scale(0.100000,-0.100000)"
fill="#FFF" stroke="none">
<path d="M3717 9290 c-231 -28 -412 -157 -511 -362 -68 -143 -81 -211 -81
-418 1 -158 4 -190 33 -330 89 -426 314 -1155 683 -2214 71 -203 129 -373 129
-378 0 -5 -24 4 -52 20 -134 76 -316 132 -430 132 -162 0 -344 -97 -528 -281
-182 -180 -274 -359 -273 -529 0 -117 48 -285 157 -550 5 -13 -13 -22 -96 -45
-531 -147 -768 -460 -795 -1045 -27 -593 225 -1168 732 -1675 250 -250 443
-391 730 -536 470 -236 948 -334 1499 -308 355 17 665 76 960 184 877 319
1574 1073 1856 2006 119 394 168 792 157 1263 -10 418 -61 696 -167 907 -125
249 -348 414 -675 499 -60 16 -109 34 -108 39 2 6 59 170 127 363 369 1052
596 1828 647 2213 14 111 6 306 -16 395 -23 87 -85 214 -134 273 -85 101 -208
179 -331 208 -90 21 -225 17 -292 -10 -253 -99 -551 -519 -861 -1216 -160
-358 -300 -725 -532 -1387 -60 -170 -111 -308 -115 -308 -4 0 -13 19 -19 43
-25 81 -293 853 -368 1057 -163 443 -309 791 -463 1105 -182 370 -330 597
-487 746 -128 122 -223 157 -376 139z m151 -409 c148 -76 263 -279 470 -831
109 -291 726 -2080 719 -2086 -3 -3 -96 2 -207 11 -332 28 -446 14 -518 -65
l-29 -31 -47 128 c-438 1174 -676 1918 -747 2333 -26 151 -23 329 6 395 35 80
89 134 162 161 50 19 139 12 191 -15z m3261 -162 c140 -30 222 -179 208 -378
-3 -42 -17 -125 -31 -186 -73 -306 -313 -1053 -569 -1770 -219 -613 -222 -620
-243 -622 -11 -1 -176 26 -369 60 -279 50 -349 66 -347 78 8 36 650 1880 699
2008 191 496 359 754 526 807 53 16 65 16 126 3z m-1874 -3109 c777 -50 1575
-240 1902 -452 176 -115 255 -263 300 -565 24 -165 25 -708 0 -899 -50 -395
-140 -702 -302 -1029 -146 -297 -310 -522 -559 -770 -399 -398 -854 -629
-1396 -710 -174 -26 -528 -31 -709 -11 -494 58 -911 226 -1271 514 -417 334
-773 894 -861 1357 -18 90 -20 134 -16 240 6 146 21 216 73 324 94 201 250
343 410 372 30 6 70 7 87 4 125 -27 313 -198 572 -520 331 -412 507 -726 475
-846 -14 -50 -79 -115 -148 -147 -49 -23 -70 -27 -142 -26 -150 2 -282 69
-450 231 -99 94 -115 113 -346 413 -69 91 -129 167 -131 170 -11 12 -52 -54
-62 -100 -46 -215 65 -482 306 -731 288 -298 584 -445 859 -426 262 18 487
212 524 450 10 67 3 161 -19 260 -8 33 -7 37 7 33 71 -21 122 -28 195 -25 72
3 90 8 126 32 24 16 44 27 46 25 1 -2 8 -79 14 -173 17 -263 50 -420 121 -571
94 -203 208 -310 367 -345 46 -11 56 -10 64 2 20 28 1 161 -42 299 -102 327
-118 395 -126 545 -23 415 284 950 744 1296 115 87 274 171 493 259 171 69
312 137 379 183 43 29 43 30 37 76 -10 72 -52 148 -99 179 l-41 27 -415 6
c-443 7 -643 21 -901 65 -581 97 -859 319 -860 685 0 173 63 261 212 294 77
17 360 19 583 5z m-1612 -309 c87 -30 164 -85 267 -190 140 -143 277 -346 437
-648 182 -343 368 -803 403 -993 18 -102 -12 -189 -92 -267 -104 -101 -219
-98 -387 11 -185 119 -399 341 -648 672 -252 336 -413 612 -488 837 -58 176
-24 297 129 451 137 138 242 174 379 127z m1422 -1026 c137 -35 287 -61 435
-75 69 -6 147 -15 173 -18 l49 -7 -64 -44 c-159 -112 -324 -262 -459 -418 -49
-57 -91 -98 -93 -91 -3 7 -21 67 -41 133 -43 140 -116 326 -186 474 -27 57
-49 107 -49 111 0 5 30 -3 68 -15 37 -13 112 -35 167 -50z"/>
</g>
</svg>
