<?xml version="1.0" standalone="no"?>
<!DOCTYPE svg PUBLIC "-//W3C//DTD SVG 20010904//EN"
 "http://www.w3.org/TR/2001/REC-SVG-20010904/DTD/svg10.dtd">
<svg version="1.0" xmlns="http://www.w3.org/2000/svg"
 width="1280.000000pt" height="449.000000pt" viewBox="0 0 1280.000000 449.000000"
 preserveAspectRatio="xMidYMid meet">
<metadata>
Created by potrace 1.15, written by Peter Selinger 2001-2017
</metadata>
<g transform="translate(0.000000,449.000000) scale(0.100000,-0.100000)"
fill="#007B82" stroke="none">
<path d="M10185 4475 c-500 -52 -911 -175 -1184 -355 -187 -123 -355 -282
-451 -428 -116 -175 -227 -453 -271 -682 -19 -100 -21 -136 -16 -280 10 -281
68 -566 153 -747 l34 -71 -35 -143 c-58 -235 -68 -334 -62 -569 4 -113 11
-226 16 -253 9 -38 7 -54 -6 -82 -9 -19 -20 -32 -25 -29 -4 3 -5 -3 -1 -12 5
-13 3 -15 -7 -9 -8 5 -11 4 -7 -2 7 -12 -49 -124 -57 -115 -4 3 -4 -2 0 -12 6
-15 4 -17 -6 -11 -8 5 -11 4 -7 -2 9 -14 -27 -95 -38 -85 -5 4 -5 2 -2 -4 9
-15 -27 -106 -38 -97 -4 5 -5 3 -2 -3 3 -5 -11 -64 -32 -130 -21 -65 -42 -138
-46 -161 -4 -24 -10 -43 -13 -43 -4 0 -7 -15 -7 -32 0 -18 -4 -52 -8 -76 -7
-42 -7 -42 22 -40 16 1 28 5 25 9 -5 8 35 25 49 21 5 -1 6 1 3 6 -7 12 69 54
79 44 5 -4 5 -2 2 4 -3 6 4 16 17 23 17 10 21 19 18 42 -2 16 0 29 5 29 6 0 8
11 5 25 -2 15 0 25 7 25 7 0 9 5 6 10 -9 15 14 110 27 110 5 0 6 4 3 10 -7 12
15 90 26 90 5 0 6 7 3 15 -4 8 -1 15 5 15 6 0 8 7 5 15 -4 8 -1 15 5 15 6 0 8
7 5 15 -4 8 -1 15 6 15 6 0 9 4 6 9 -8 12 14 71 26 71 5 0 7 4 3 9 -8 14 29
103 40 94 4 -4 5 -3 2 4 -9 15 47 146 58 136 4 -5 5 -3 1 4 -9 16 145 324 157
316 6 -3 7 -2 4 3 -8 13 47 106 57 97 4 -5 7 -3 6 2 -5 21 0 36 10 30 6 -4 10
-3 9 2 -4 21 2 34 13 27 6 -4 8 -3 5 3 -8 13 37 75 48 65 5 -4 5 -2 2 4 -8 13
129 180 144 176 6 -1 8 2 5 7 -7 11 232 251 247 248 6 -1 11 3 12 10 0 18 126
123 139 116 6 -3 8 -3 4 2 -10 11 52 56 65 48 6 -3 7 -1 3 5 -7 11 7 17 29 12
6 -1 6 2 2 6 -4 5 9 19 30 32 64 39 193 103 193 95 0 -5 4 -3 8 3 12 19 72 45
85 38 7 -4 8 -3 4 1 -9 11 130 68 144 60 5 -4 9 -1 9 5 0 7 7 9 16 6 8 -3 12
-2 9 4 -5 9 16 14 53 13 6 -1 12 3 12 7 0 4 35 17 78 28 104 27 122 31 122 26
0 -8 -114 -77 -127 -77 -7 0 -11 -2 -9 -4 6 -6 -247 -176 -262 -176 -6 0 -10
-2 -7 -5 8 -8 -189 -151 -200 -145 -5 4 -7 3 -3 -2 8 -9 -80 -82 -94 -77 -5 1
-7 -2 -4 -7 6 -9 -44 -47 -57 -43 -5 1 -6 -1 -3 -6 6 -9 -74 -79 -86 -75 -3 1
-12 -4 -18 -12 -7 -8 -9 -15 -4 -15 4 0 -12 -20 -36 -45 -24 -24 -47 -42 -52
-39 -5 3 -7 0 -6 -7 2 -7 -3 -13 -9 -14 -7 0 -14 -4 -14 -10 -3 -17 -91 -120
-101 -117 -5 1 -7 -1 -4 -6 6 -11 -48 -94 -57 -87 -4 3 -5 2 -2 -1 2 -4 0 -15
-6 -25 -7 -13 -6 -19 1 -19 6 0 8 -4 5 -10 -4 -6 1 -7 11 -3 12 4 15 3 10 -5
-5 -8 -1 -10 10 -5 13 5 15 3 9 -7 -5 -8 -4 -11 1 -7 10 6 226 -77 219 -84 -2
-3 4 -5 13 -6 9 0 74 -16 143 -36 70 -19 175 -43 235 -53 136 -22 373 -22 493
0 47 8 88 13 92 10 4 -2 9 1 11 7 2 7 18 12 36 13 18 0 32 4 32 8 0 9 61 29
70 23 5 -3 10 -1 12 3 5 12 175 102 182 96 3 -2 4 -1 1 2 -2 4 31 32 75 62 96
65 192 166 310 324 48 64 90 115 92 113 3 -3 5 1 5 9 0 21 166 255 177 249 5
-3 6 -2 3 3 -8 13 62 100 77 96 6 -2 8 0 4 3 -10 10 42 76 53 69 5 -3 8 -1 7
4 -4 13 102 133 112 127 4 -3 13 2 20 10 7 8 9 15 4 15 -4 0 3 11 16 25 12 13
26 22 30 20 4 -3 16 5 26 18 l19 22 -25 -20 -25 -20 24 27 c13 15 28 25 34 21
6 -3 7 -1 4 4 -7 11 82 90 96 85 5 -1 6 2 2 7 -6 11 34 37 50 32 6 -1 7 1 2 5
-10 10 74 65 87 57 6 -3 8 -2 4 2 -10 11 110 77 124 69 6 -4 8 -3 5 3 -8 12
20 26 34 17 5 -3 9 -1 9 4 0 14 160 83 173 75 7 -3 9 -2 4 2 -9 10 101 57 114
49 5 -3 9 -1 9 4 0 12 109 54 121 46 5 -3 9 -1 9 4 0 12 89 44 100 37 5 -3 10
0 12 6 2 6 16 12 31 12 15 1 27 6 27 11 0 4 7 6 15 2 8 -3 15 -2 15 3 0 4 -43
13 -95 20 -52 8 -95 16 -95 20 0 3 -24 7 -53 9 -28 1 -54 7 -55 12 -2 6 -8 8
-13 5 -10 -7 -129 16 -129 25 0 3 -19 6 -42 7 -23 1 -44 6 -46 12 -2 5 -9 8
-17 5 -18 -7 -519 124 -523 136 -2 6 -8 8 -13 5 -12 -8 -89 16 -89 27 0 5 -5
6 -10 3 -10 -6 -140 32 -150 44 -3 3 -9 6 -15 6 -25 1 -115 28 -115 35 0 4
-10 6 -22 2 -16 -4 -19 -2 -13 8 5 8 4 11 -2 7 -14 -9 -74 3 -68 13 3 5 -4 6
-15 3 -11 -3 -20 -1 -20 3 0 5 -17 10 -37 11 -21 1 -39 7 -41 13 -2 5 -8 8
-12 5 -10 -6 -140 17 -140 25 0 3 -30 6 -67 8 -36 1 -70 5 -74 8 -25 15 -217
17 -378 3 -68 -5 -125 -8 -127 -7 -2 2 16 52 40 110 50 122 134 284 202 390
58 90 265 297 391 393 60 45 88 72 80 77 -7 3 -73 14 -147 22 -161 19 -489 19
-665 1z m-991 -1507 c-44 -46 -82 -82 -86 -80 -5 1 -7 -1 -6 -5 4 -14 -34 -63
-43 -57 -5 3 -8 2 -7 -3 4 -15 -23 -54 -34 -47 -6 4 -8 3 -5 -3 8 -13 -37 -75
-48 -65 -5 4 -5 2 -2 -4 8 -14 -27 -66 -38 -57 -4 5 -6 3 -2 -2 8 -15 -47
-107 -58 -98 -4 5 -5 3 -2 -3 8 -13 -48 -125 -59 -116 -4 4 -4 2 -1 -4 8 -14
-27 -107 -37 -97 -4 4 -4 0 0 -10 3 -9 1 -17 -5 -17 -6 0 -8 -7 -5 -15 4 -8 1
-15 -5 -15 -6 0 -8 -7 -5 -15 4 -8 1 -15 -6 -15 -6 0 -9 -4 -5 -10 3 -5 -3
-44 -14 -87 -48 -190 -54 -249 -57 -523 -1 -174 2 -267 9 -272 6 -3 -6 -27
-30 -57 -22 -28 -44 -47 -48 -43 -5 4 -5 2 -2 -4 8 -14 -37 -76 -48 -66 -5 4
-5 2 -2 -4 3 -5 -2 -22 -12 -37 -17 -26 -17 -25 -36 116 -25 182 -25 404 -1
542 71 396 279 812 528 1051 49 48 238 203 247 204 2 0 -32 -37 -75 -82z"/>
<path d="M390 3813 c-76 -5 -263 -24 -303 -30 l-37 -6 2 -981 3 -981 65 -8
c36 -4 182 -9 325 -9 199 -2 283 2 360 15 307 50 530 167 672 352 170 220 246
559 198 875 -69 457 -366 719 -874 770 -95 9 -301 11 -411 3z m340 -213 c390
-41 612 -239 666 -592 26 -168 9 -366 -45 -522 -59 -168 -177 -304 -332 -380
-142 -70 -221 -87 -430 -93 -97 -3 -197 -3 -223 1 l-46 7 0 779 0 780 24 6
c26 6 182 20 251 22 22 1 83 -3 135 -8z"/>
<path d="M2445 3265 c-357 -78 -564 -420 -523 -863 25 -276 181 -489 418 -573
154 -55 353 -62 555 -20 93 19 205 57 205 69 0 29 -47 182 -56 182 -6 0 -31
-7 -55 -16 -139 -49 -374 -64 -484 -30 -86 26 -132 52 -190 107 -78 74 -135
207 -135 316 l0 43 494 0 c441 0 495 2 500 16 12 30 6 192 -10 275 -51 270
-204 447 -429 494 -85 18 -209 18 -290 0z m276 -213 c90 -44 153 -129 184
-249 8 -31 15 -74 15 -95 l0 -38 -371 0 -371 0 7 43 c27 160 133 301 263 350
69 25 211 20 273 -11z"/>
<path d="M5365 3271 c-307 -49 -516 -254 -581 -568 -25 -120 -15 -342 20 -448
63 -192 175 -325 341 -406 112 -55 203 -72 345 -66 175 7 305 56 435 162 214
176 301 555 200 873 -54 170 -169 309 -316 381 -46 22 -111 48 -144 56 -73 18
-232 27 -300 16z m268 -236 c106 -53 181 -152 228 -305 30 -97 33 -280 6 -379
-40 -147 -130 -272 -233 -324 -149 -76 -303 -54 -425 60 -107 100 -158 224
-166 403 -12 284 106 500 310 566 27 9 75 13 132 11 75 -3 100 -8 148 -32z"/>
<path d="M7093 3269 c-65 -11 -145 -42 -205 -81 -48 -30 -148 -131 -148 -149
0 -6 -4 -7 -10 -4 -5 3 -10 32 -10 64 0 32 -3 79 -6 105 l-7 46 -120 0 -120 0
7 -37 c3 -21 6 -345 6 -720 l0 -683 135 0 135 0 0 439 c0 254 4 461 10 492 33
177 183 311 348 311 132 0 215 -47 271 -151 55 -104 60 -162 61 -653 l0 -438
136 0 136 0 -5 498 c-5 548 -7 570 -70 702 -39 81 -132 177 -207 213 -101 49
-220 65 -337 46z"/>
<path d="M3312 3233 c4 -14 498 -1317 533 -1405 6 -16 23 -18 135 -18 l128 0
10 28 c6 15 130 333 277 707 147 374 270 686 272 693 4 10 -25 12 -138 10
l-142 -3 -183 -525 c-100 -289 -188 -546 -194 -572 -7 -27 -15 -48 -18 -48 -4
0 -19 43 -34 95 -15 52 -103 310 -195 575 l-168 480 -144 0 c-132 0 -143 -1
-139 -17z"/>
<path d="M7540 1005 l0 -435 55 0 55 0 0 435 0 435 -55 0 -55 0 0 -435z"/>
<path d="M300 1396 c-70 -20 -117 -45 -170 -92 -99 -90 -135 -189 -128 -358 3
-93 8 -120 30 -168 72 -157 232 -241 425 -224 96 9 176 33 169 51 -2 7 -8 30
-12 50 -5 28 -10 35 -23 29 -52 -22 -141 -35 -196 -29 -117 13 -203 72 -247
169 -19 43 -23 68 -23 156 0 130 22 187 97 255 79 71 208 95 324 60 27 -8 52
-11 55 -7 11 12 31 83 25 89 -3 3 -31 12 -63 19 -71 17 -202 17 -263 0z"/>
<path d="M4253 1395 c-202 -55 -313 -222 -300 -450 10 -187 90 -306 246 -366
96 -37 361 -26 377 16 3 7 0 31 -6 53 l-10 41 -38 -13 c-151 -54 -320 -11
-394 100 -30 46 -58 138 -58 195 0 95 35 195 88 252 71 76 217 107 334 73 31
-9 58 -16 61 -16 2 0 10 21 17 46 11 39 11 47 -1 55 -49 30 -227 38 -316 14z"/>
<path d="M7257 1392 c-23 -25 -22 -85 1 -105 25 -23 85 -22 105 1 23 25 22 85
-1 105 -25 23 -85 22 -105 -1z"/>
<path d="M2823 1293 l-53 -16 0 -53 0 -54 -45 0 -45 0 0 -45 0 -45 45 0 45 0
0 -187 c0 -104 5 -206 11 -228 22 -83 94 -123 196 -110 l53 6 0 50 0 49 -44
-6 c-39 -6 -48 -3 -70 19 l-26 26 0 191 0 190 75 0 75 0 0 45 0 45 -75 0 -75
0 0 70 c0 39 -3 70 -7 69 -5 0 -32 -8 -60 -16z"/>
<path d="M892 1166 c-122 -40 -189 -134 -199 -276 -10 -144 42 -249 152 -305
50 -26 69 -30 134 -29 129 1 216 55 266 166 24 53 28 76 29 148 0 131 -47 221
-145 274 -63 35 -168 44 -237 22z m155 -92 c66 -32 105 -110 104 -213 -1 -188
-176 -287 -284 -160 -93 109 -68 312 45 368 52 25 88 27 135 5z"/>
<path d="M2291 1167 c-18 -7 -51 -28 -72 -45 l-39 -33 0 25 c0 48 -9 56 -61
56 l-49 0 0 -300 0 -300 60 0 60 0 0 190 c0 209 5 234 58 284 60 56 161 43
199 -27 15 -27 18 -64 21 -239 l3 -208 61 0 60 0 -4 218 c-3 211 -4 219 -30
274 -35 76 -84 109 -170 114 -36 2 -77 -2 -97 -9z"/>
<path d="M4836 1164 c-34 -11 -64 -31 -101 -68 -66 -66 -89 -129 -89 -241 1
-100 28 -167 91 -226 62 -57 104 -73 193 -73 126 0 223 60 272 168 33 74 33
219 -1 294 -59 131 -212 192 -365 146z m151 -85 c128 -48 163 -273 60 -382
-93 -99 -230 -54 -273 89 -18 60 -18 98 1 162 33 110 122 165 212 131z"/>
<path d="M6258 1170 c-40 -12 -96 -48 -113 -73 -14 -20 -15 -19 -15 26 l0 47
-56 0 -56 0 6 -31 c3 -17 6 -152 6 -300 l0 -269 60 0 60 0 0 203 c0 184 2 205
20 235 42 69 139 94 195 50 49 -38 55 -69 55 -288 l0 -200 61 0 60 0 -3 228
c-3 212 -4 230 -25 268 -50 93 -153 135 -255 104z"/>
<path d="M6885 1166 c-94 -30 -154 -80 -191 -160 -62 -135 -27 -313 79 -396
63 -49 165 -69 267 -50 96 17 100 21 87 72 -5 24 -11 44 -11 45 -1 1 -20 -4
-41 -12 -103 -36 -207 -5 -258 76 -67 108 -35 257 68 317 35 20 50 22 115 19
41 -3 85 -8 96 -12 18 -5 23 -2 28 22 4 15 9 36 12 45 11 38 -163 62 -251 34z"/>
<path d="M1400 959 c0 -126 5 -229 12 -256 15 -62 78 -127 137 -143 76 -20
178 7 226 60 l20 22 5 -33 c5 -33 6 -34 58 -37 l52 -3 0 300 0 301 -60 0 -60
0 0 -195 c0 -216 -5 -243 -59 -288 -45 -37 -96 -45 -141 -21 -63 34 -70 62
-70 297 l0 207 -60 0 -60 0 0 -211z"/>
<path d="M3083 1158 c3 -7 55 -138 116 -291 l111 -278 -20 -39 c-29 -58 -73
-104 -125 -131 -49 -26 -50 -27 -34 -81 12 -44 27 -47 84 -17 73 38 132 107
185 214 38 78 250 613 250 631 0 2 -28 4 -63 4 l-63 0 -74 -227 -75 -228 -67
185 c-37 102 -75 204 -84 228 l-16 42 -65 0 c-48 0 -64 -3 -60 -12z"/>
<path d="M5350 976 c0 -217 9 -283 46 -339 66 -99 215 -114 312 -31 22 19 43
34 46 34 3 0 6 -16 6 -35 l0 -35 50 0 50 0 0 300 0 300 -59 0 -60 0 -3 -212
c-3 -203 -4 -215 -26 -245 -13 -18 -41 -39 -67 -49 -63 -24 -114 -8 -147 44
-22 35 -23 48 -26 250 l-3 212 -60 0 -59 0 0 -194z"/>
<path d="M7250 870 l0 -300 60 0 60 0 0 300 0 300 -60 0 -60 0 0 -300z"/>
</g>
</svg>
