<svg version="1.0" xmlns="http://www.w3.org/2000/svg"
 width="1022.000000pt" height="1024.000000pt" viewBox="0 0 1022.000000 1024.000000"
 preserveAspectRatio="xMidYMid meet">
<g transform="translate(0.000000,1024.000000) scale(0.100000,-0.100000)"
fill="#83368C" stroke="none">
<path d="M0 5120 l0 -5120 4715 0 4715 0 0 385 0 385 393 2 392 3 3 322 2 323
-395 0 -395 0 0 385 0 385 395 0 395 0 0 4025 0 4025 -5110 0 -5110 0 0 -5120z
m1910 4145 l0 -185 -350 0 -350 0 0 -295 0 -295 330 0 330 0 0 -170 0 -170
-330 0 -330 0 0 -465 0 -465 -215 0 -215 0 0 1115 0 1115 565 0 565 0 0 -185z
m600 0 l0 -185 -205 0 -205 0 0 185 0 185 205 0 205 0 0 -185z m3190 -250 l0
-225 180 0 180 0 0 -150 0 -150 -180 0 -180 0 0 -403 c0 -327 3 -413 15 -453
14 -49 48 -90 92 -113 31 -16 151 -14 209 4 27 8 52 11 55 7 4 -4 9 -75 11
-159 l4 -152 -45 -11 c-70 -18 -247 -28 -331 -19 -213 22 -351 140 -405 345
-12 48 -15 139 -15 506 l0 448 -150 0 -150 0 0 150 0 150 150 0 150 0 0 159 0
159 198 65 c108 36 200 65 205 66 4 1 7 -100 7 -224z m-2062 -191 c22 -6 22
-7 22 -211 l0 -205 -22 6 c-106 29 -231 26 -295 -8 -45 -23 -100 -87 -127
-146 -53 -117 -58 -171 -63 -622 l-5 -418 -204 0 -204 0 0 785 0 785 185 0
185 0 1 -162 c0 -92 4 -152 8 -138 29 93 129 223 216 278 79 50 223 77 303 56z
m1072 -24 c63 -13 118 -26 123 -29 6 -6 -4 -151 -19 -267 l-5 -41 -82 24
c-290 84 -517 32 -517 -120 0 -86 42 -117 262 -190 175 -59 248 -96 319 -163
69 -67 107 -145 118 -244 18 -171 -26 -306 -135 -410 -138 -132 -352 -190
-630 -169 -108 8 -303 43 -334 59 -14 7 -14 27 -3 172 6 89 12 164 12 165 1 1
32 -11 71 -27 152 -66 337 -88 449 -54 146 43 194 194 91 286 -34 30 -70 46
-203 89 -194 62 -263 95 -329 157 -81 75 -118 169 -118 297 0 258 166 431 467
485 82 15 336 4 463 -20z m-2200 -795 l0 -785 -205 0 -205 0 0 785 0 785 205
0 205 0 0 -785z m1820 -1240 l0 -185 -205 0 -205 0 0 185 0 185 205 0 205 0 0
-185z m640 -930 l0 -1115 -205 0 -205 0 0 1115 0 1115 205 0 205 0 0 -1115z
m640 930 l0 -185 -205 0 -205 0 0 185 0 185 205 0 205 0 0 -185z m-4400 -532
c0 -758 8 -858 77 -1000 76 -154 233 -227 434 -202 180 22 284 122 341 326 22
76 22 94 26 786 l3 707 215 0 214 0 0 -722 c0 -768 -4 -840 -49 -971 -49 -141
-137 -259 -249 -334 -74 -49 -207 -99 -318 -118 -105 -18 -367 -21 -470 -5
-359 56 -553 228 -630 560 -15 67 -18 157 -21 833 l-4 757 215 0 216 0 0 -617z
m2328 59 l183 -2 -3 -148 -3 -147 -183 -3 -184 -2 4 -413 3 -412 30 -59 c42
-84 72 -98 190 -94 58 3 101 10 121 21 l31 16 7 -91 c3 -50 6 -124 6 -164 0
-61 -3 -74 -17 -78 -95 -28 -341 -37 -428 -15 -124 30 -231 108 -283 206 -66
125 -65 122 -70 626 l-3 457 -150 0 -149 0 0 150 0 150 150 0 150 0 0 158 0
158 203 65 202 65 5 -221 5 -220 183 -3z m3162 -2 l180 0 0 -150 0 -150 -181
0 -180 0 3 -417 3 -418 25 -50 c36 -72 75 -95 165 -95 39 0 95 7 124 16 29 8
54 14 56 12 3 -4 15 -318 12 -318 -1 0 -35 -7 -75 -15 -43 -9 -126 -16 -200
-16 -187 0 -278 29 -374 119 -56 52 -88 102 -120 188 -22 57 -22 72 -26 527
l-3 467 -150 0 -149 0 0 150 0 150 150 0 150 0 0 160 0 159 68 21 c37 11 128
40 202 64 l135 44 3 -224 2 -224 180 0z m-2370 -785 l0 -785 -205 0 -205 0 0
785 0 785 205 0 205 0 0 -785z m1280 0 l0 -785 -205 0 -205 0 0 785 0 785 205
0 205 0 0 -785z m2038 213 l189 -573 27 85 c15 47 99 304 187 573 l161 487
209 0 209 0 -11 -27 c-6 -16 -157 -417 -335 -893 -179 -476 -350 -915 -380
-977 -42 -86 -71 -129 -124 -185 -110 -118 -209 -158 -396 -158 -102 0 -258
22 -276 38 -7 7 17 290 25 298 2 3 24 0 48 -5 58 -14 204 -14 252 0 48 13 112
70 139 122 11 22 22 63 25 91 5 48 -13 102 -287 856 -161 443 -295 813 -298
823 -4 16 11 17 221 17 l226 0 189 -572z"/>
</g>
</svg>
