<svg version="1.0" xmlns="http://www.w3.org/2000/svg" viewBox="0 0 225 225">
<g transform="translate(0.000000,225.000000) scale(0.100000,-0.100000)"
fill="#812CB9" stroke="none">
<path d="M1010 1932 c-258 -68 -413 -332 -397 -678 6 -138 36 -254 96 -374 30
-60 36 -80 28 -97 -14 -33 1 -93 32 -124 59 -59 157 -42 195 34 36 75 -9 160
-94 173 -42 7 -43 8 -80 88 -57 123 -74 201 -74 346 0 145 17 219 71 323 66
125 157 193 288 216 106 18 184 -10 263 -93 57 -60 108 -161 126 -248 l12 -62
54 -18 53 -18 -7 55 c-16 137 -86 287 -176 373 -75 72 -199 123 -293 121 -18
0 -61 -8 -97 -17z"/>
<path d="M948 1412 c-30 -18 -58 -67 -58 -102 0 -36 31 -90 61 -105 15 -8 47
-15 70 -15 34 0 47 6 76 35 33 33 39 35 103 35 265 0 560 -169 664 -381 71
-146 70 -246 -4 -356 -95 -141 -269 -185 -463 -118 -41 14 -41 14 -89 -23 -26
-20 -48 -37 -48 -39 0 -6 76 -34 132 -49 72 -18 215 -20 283 -4 74 19 177 76
231 128 85 84 124 211 104 337 -23 144 -83 249 -212 370 -146 138 -324 213
-556 236 -106 10 -120 14 -150 40 -39 34 -100 39 -144 11z"/>
<path d="M422 1085 c-129 -132 -186 -285 -163 -440 27 -181 121 -286 306 -341
219 -65 563 48 752 249 47 49 153 200 153 216 0 4 16 13 35 20 99 36 106 180
10 225 -45 22 -76 20 -116 -7 -59 -39 -74 -98 -43 -163 16 -33 15 -35 -12 -81
-38 -67 -156 -186 -236 -239 -153 -102 -274 -139 -431 -132 -110 5 -183 34
-241 98 -67 74 -81 113 -81 225 0 95 2 103 35 165 19 36 60 91 91 122 l57 58
-10 42 c-6 24 -15 47 -19 53 -6 5 -40 -22 -87 -70z"/>
</g>
</svg>
