<svg xmlns="http://www.w3.org/2000/svg" xmlns:xlink="http://www.w3.org/1999/xlink" version="1.1" width="512" height="512" enable-background="new 0 0 512 512" xml:space="preserve"><rect id="backgroundrect" width="100%" height="100%" x="0" y="0" fill="none" stroke="none"/>
<g class="currentLayer" style=""><title>Layer 1</title><text transform="matrix(1,0,0,1,168.783,543.8093) " fill="#FFFF00" font-family="'Verdana-Bold'" font-size="20" id="svg_1">simpleicon.com</text><text transform="matrix(1,0,0,1,9.1931,567.8093) " fill="#FFFF00" font-family="'Verdana'" font-size="20" id="svg_2">Collection Of Flat Icon, Symbols And Glyph Icons</text>
<g id="svg_3" class="selected">
	<path d="M265.2144433963979,392.57620980415334 c-6.386680390013209,-4.782870721493064 -7.062513095005965,-11.969677772685857 -7.062513095005965,-11.969677772685857 l-2.39301199172571,-15.592458575322267 h-76.29672882281193 l-2.400371331525994,15.592458575322267 c0,0 -0.667246808559091,7.186807051192794 -7.050247528672158,11.969677772685857 c-6.375641380312784,4.787871109074344 -11.414336030240625,8.891939216408826 -6.375641380312784,9.586993090206565 c4.851031485020596,0.6638014514147459 50.6028204667534,0.06000465097534428 53.97830432181704,0 c3.384069751497301,0.06000465097534428 49.12604628016306,0.6638014514147459 53.981983991717186,0 C276.62387320010504,401.4681490205622 271.58395199354385,397.37408168839033 265.2144433963979,392.57620980415334 z" id="svg_4"/>
	<path d="M87.74273755591372,261.7048159300323 c0,-7.213059085994506 -5.741511600854971,-13.064762652985891 -12.819969932094885,-13.064762652985891 H14.045082239235455 c-7.078458331239913,0 -12.821196488728265,5.851703566991384 -12.821196488728265,13.064762652985891 v137.15813116068375 c0,7.221809764261745 5.742738157488352,13.06726284677653 12.821196488728265,13.06726284677653 h60.882591611116894 c7.074778661339771,0 12.819969932094885,-5.845453082514785 12.819969932094885,-13.06726284677653 V261.7048159300323 H87.74273755591372 zM38.12484206576498,263.3399426691104 h12.818743375461505 c0.8855738893008522,0 1.6018829631951703,0.7288064899713688 1.6018829631951703,1.6251259639155735 c0,0.9050701522114425 -0.7163090738943184,1.6401271266594095 -1.6018829631951703,1.6401271266594095 H38.12484206576498 c-0.8855738893008522,0 -1.604336076461932,-0.740057362029246 -1.604336076461932,-1.6401271266594095 C36.521732545936445,264.0587483839192 37.24049473309752,263.3399426691104 38.12484206576498,263.3399426691104 zM44.00004833965845,404.204611124417 c-3.541069000570028,0 -6.413664635947585,-2.9227265412573935 -6.413664635947585,-6.534256471835925 c0,-3.6065295429972535 2.872595635377557,-6.534256471835925 6.413664635947585,-6.534256471835925 c3.5386158873032674,0 6.4087584094140615,2.917726153676114 6.4087584094140615,6.534256471835925 C50.40880674907251,401.2818845831596 47.543570453495235,404.204611124417 44.00004833965845,404.204611124417 zM79.73454929657123,385.80693511599736 H9.234527123116415 v-109.409730375273 h70.50124873008821 V385.80693511599736 z" id="svg_5"/>
	<path d="M488.58757812788747,173.5017292869622 H356.7364197093642 c-9.928975947216617,0 -17.97764057546065,8.198135439506409 -17.97764057546065,18.32017000090979 v192.3324077325128 c0,10.120784464508064 8.049891184877414,18.32892067917703 17.97764057546065,18.32892067917703 h131.85115841852314 c9.935108730383522,0 17.97764057546065,-8.208136214668965 17.97764057546065,-18.32892067917703 V191.818148997186 C506.5603124768145,181.69611443578265 498.5177806317374,173.5017292869622 488.58757812788747,173.5017292869622 zM396.8472747341793,392.2886875182299 c-4.963874695291619,0 -8.995566349213918,-4.092817235276606 -8.995566349213918,-9.148209079949357 c0,-5.060392232254032 4.031691653922301,-9.163210242693195 8.995566349213918,-9.163210242693195 c4.9552887988579535,0 8.972261773179687,4.102818010439163 8.972261773179687,9.163210242693195 C405.82076306399233,388.1958702829533 401.8025635330373,392.2886875182299 396.8472747341793,392.2886875182299 zM422.657705970409,392.2886875182299 c-4.9552887988579535,0 -8.982074226246732,-4.092817235276606 -8.982074226246732,-9.148209079949357 c0,-5.060392232254032 4.026785427388778,-9.163210242693195 8.982074226246732,-9.163210242693195 c4.9700074784585215,0 8.985753896146875,4.102818010439163 8.985753896146875,9.163210242693195 C431.64345986655576,388.1958702829533 427.632619675401,392.2886875182299 422.657705970409,392.2886875182299 zM448.4926683393063,392.2886875182299 c-4.9700074784585215,0 -8.986980452780255,-4.092817235276606 -8.986980452780255,-9.148209079949357 c0,-5.060392232254032 4.016972974321733,-9.163210242693195 8.986980452780255,-9.163210242693195 c4.958968468758096,0 8.98084766961335,4.102818010439163 8.98084766961335,9.163210242693195 C457.4735160089196,388.1958702829533 453.4516368080644,392.2886875182299 448.4926683393063,392.2886875182299 zM495.32873338494755,365.82788653499836 H349.99526445230407 V189.52422119427445 h145.3334689326436 V365.82788653499836 L495.32873338494755,365.82788653499836 z" id="svg_6"/>
	<path d="M379.67425531021644,158.05178175770638 h22.09887086361974 v-40.78941159738557 c0,-8.299393288027302 -6.5976481309546875,-15.018664100370538 -14.735851393435508,-15.018664100370538 H48.185059572753346 c-8.135750149214061,0 -14.735851393435508,6.719270812343236 -14.735851393435508,15.018664100370538 v115.93273597505105 h22.103777090153265 v-108.42840431244706 h324.1212700407453 V158.05178175770638 L379.67425531021644,158.05178175770638 z" id="svg_7"/>
	<path d="M102.90420410113231,304.9494178298257 v45.04599152594905 h220.69556160081945 v-45.04599152594905 H102.90420410113231 zM217.6081007849935,337.7732120102343 c-5.578379568615341,0 -10.106826659056816,-4.616607834415548 -10.106826659056816,-10.300798417434097 c0,-5.682940486123228 4.528447090441476,-10.299548320538776 10.106826659056816,-10.299548320538776 c5.579606125248722,0 10.106826659056816,4.616607834415548 10.106826659056816,10.299548320538776 C227.71492744405037,333.1553540789235 223.18770691024224,337.7732120102343 217.6081007849935,337.7732120102343 z" id="svg_8"/>
</g></g></svg>