<svg version="1.0" xmlns="http://www.w3.org/2000/svg"
 width="400.000000pt" height="400.000000pt" viewBox="0 0 400.000000 400.000000"
 preserveAspectRatio="xMidYMid meet">
<g transform="translate(0.000000,400.000000) scale(0.100000,-0.100000)"
fill="#004279" stroke="none">
<path d="M1412 3608 l3 -303 38 -79 c66 -138 173 -250 333 -347 79 -49 186
-99 210 -99 26 0 188 85 269 141 151 104 274 265 304 399 6 25 11 168 11 318
l0 272 -586 0 -585 0 3 -302z m1088 14 c0 -225 -9 -290 -53 -382 -43 -92 -171
-217 -297 -291 -146 -86 -146 -86 -241 -39 -224 111 -371 269 -409 440 -5 25
-10 141 -10 258 l0 212 505 0 505 0 0 -198z"/>
<path d="M1530 3700 c0 -91 -13 -81 110 -83 l65 -2 3 -87 3 -88 -92 0 -92 0 6
-49 c3 -27 13 -65 21 -85 12 -29 21 -36 43 -37 15 0 46 -1 68 -2 l40 -2 3 -87
3 -88 94 0 95 0 0 -69 0 -68 46 -21 47 -20 48 20 49 21 0 68 0 68 93 3 92 3 2
75 c0 41 1 80 2 85 1 6 29 11 67 12 80 1 90 14 110 136 l7 37 -92 0 -91 0 -1
50 c-1 28 -1 61 -1 75 0 52 -1 51 75 52 39 1 80 2 90 2 15 1 17 12 17 81 l0
80 -95 0 -95 0 0 -80 0 -80 -90 0 -90 0 0 80 0 80 -95 0 -95 0 0 -80 0 -80
-95 0 -95 0 0 80 0 80 -90 0 -90 0 0 -80z m558 -172 l3 -88 89 0 90 0 0 -85 0
-85 -90 0 -90 0 0 85 0 85 -95 0 -95 0 0 -85 c0 -61 4 -85 13 -86 6 -1 48 -2
92 -3 l80 -1 0 -85 0 -85 -50 2 c-27 0 -69 1 -92 2 l-43 1 0 85 0 85 -95 0
-95 0 0 85 0 85 95 0 95 0 0 83 c0 46 2 86 5 89 3 3 45 5 93 4 l87 -1 3 -87z"/>
<path d="M174 2984 c4 -10 29 -98 57 -198 28 -100 76 -268 106 -375 49 -173
55 -200 49 -255 -4 -34 -9 -83 -11 -111 -6 -63 -54 -543 -60 -610 -3 -27 -7
-70 -10 -95 -3 -25 -7 -70 -10 -100 -5 -60 -23 -251 -30 -315 -2 -22 -11 -112
-20 -200 -8 -88 -17 -180 -20 -205 -3 -25 -12 -115 -20 -200 -8 -85 -17 -176
-20 -202 l-5 -48 475 0 c372 0 477 3 480 13 2 6 6 46 10 87 3 41 12 143 21
225 8 83 17 177 20 210 3 33 9 96 14 140 5 44 12 118 15 165 8 97 41 172 120
273 l45 57 70 0 70 0 0 -69 0 -68 47 -21 c44 -19 49 -19 82 -4 59 27 61 30 61
98 l0 64 95 0 95 0 0 -68 0 -68 45 -22 46 -22 47 22 47 23 3 68 3 67 89 0 89
0 3 -67 3 -68 47 -23 47 -22 46 22 46 22 -3 71 -3 70 -84 0 c-93 1 -99 5 -95
73 1 17 2 48 3 67 l1 35 57 0 c42 0 65 -6 90 -22 32 -22 33 -25 33 -90 l0 -68
70 0 70 0 45 -57 c24 -32 60 -89 79 -128 30 -58 37 -85 42 -160 3 -49 7 -97 9
-105 1 -8 6 -53 10 -100 4 -47 9 -92 10 -100 1 -8 6 -58 11 -110 4 -52 8 -97
9 -100 1 -3 5 -48 10 -100 5 -52 10 -98 11 -102 1 -5 2 -30 3 -58 l1 -50 481
0 481 0 -6 43 c-3 23 -17 159 -31 302 -14 143 -28 278 -30 300 -3 22 -9 94
-15 160 -6 66 -13 138 -15 160 -8 67 -34 324 -45 445 -6 63 -13 133 -15 155
-2 22 -16 162 -31 310 l-26 270 40 145 c71 255 170 604 177 623 7 16 -5 17
-168 17 -193 0 -179 5 -191 -65 -3 -16 -10 -56 -16 -87 l-11 -57 -67 2 -67 2
0 103 0 102 -172 0 -172 0 -3 -102 -3 -103 -66 -3 -67 -2 -16 87 c-9 49 -16
96 -16 106 0 16 -15 17 -175 17 -133 0 -175 -3 -175 -12 0 -7 45 -170 99 -363
55 -192 97 -352 94 -355 -2 -3 -59 -5 -126 -6 l-122 0 -3 -102 -3 -102 -89 0
-90 0 0 100 c0 73 -3 100 -12 101 -7 0 -91 2 -186 2 l-172 2 0 -102 0 -103
-95 0 -94 0 -3 102 -3 102 -122 1 c-67 0 -124 3 -127 6 -3 2 6 43 19 89 13 47
58 205 99 352 42 148 76 272 76 278 0 6 -64 10 -174 10 l-173 0 -7 -42 c-4
-24 -11 -71 -17 -104 l-11 -62 -66 2 -67 1 -3 103 -3 102 -169 0 -170 0 0
-103 0 -103 -70 -1 c-79 -2 -73 -8 -90 102 -18 116 3 105 -197 105 -159 0
-175 -2 -169 -16z m290 -173 c9 -55 23 -101 29 -104 20 -7 277 -5 282 2 2 4 5
51 6 104 l2 97 83 0 83 0 3 -102 3 -103 150 0 150 0 12 70 c7 39 15 85 18 103
l6 32 78 0 78 0 -18 -62 c-129 -452 -171 -609 -170 -643 0 -22 5 -89 11 -150
15 -154 18 -190 25 -270 5 -66 7 -92 19 -205 3 -25 8 -81 12 -125 3 -44 8 -91
9 -105 2 -16 -11 -41 -39 -75 -54 -66 -75 -97 -118 -175 -37 -67 -38 -70 -64
-345 -3 -33 -7 -73 -9 -90 -2 -16 -11 -109 -20 -205 -9 -96 -20 -202 -23 -235
l-7 -60 -388 -3 -388 -2 5 47 c3 27 12 120 21 208 8 88 17 180 20 205 3 25 9
95 15 155 16 172 20 207 25 255 2 25 7 74 10 110 3 36 8 81 10 100 2 19 7 60
9 90 3 30 15 143 25 250 11 107 30 297 42 421 l22 226 -46 164 c-26 90 -60
214 -78 274 -17 61 -36 130 -43 155 -7 25 -16 55 -20 68 -7 22 -6 22 72 22
l79 0 17 -99z m2242 -1 c10 -55 20 -101 23 -101 19 -4 269 -6 282 -3 14 4 17
19 17 82 0 136 -10 122 87 122 l84 0 3 -102 3 -103 144 0 145 0 7 30 c4 17 13
63 19 103 l12 72 79 0 c58 0 77 -3 74 -12 -2 -7 -25 -87 -50 -178 -26 -91 -67
-237 -92 -325 -43 -153 -45 -164 -38 -250 3 -49 8 -99 10 -110 2 -11 7 -51 10
-90 3 -38 13 -135 21 -215 7 -80 16 -172 19 -205 3 -33 8 -76 10 -95 2 -19 7
-64 10 -100 3 -36 8 -81 10 -100 2 -19 7 -62 10 -95 3 -33 8 -82 10 -110 3
-27 21 -212 40 -410 19 -198 37 -381 40 -407 l6 -48 -391 0 -390 0 0 45 c0 30
4 45 13 45 11 0 69 7 207 24 19 3 52 5 73 5 63 1 33 18 -45 24 -152 13 -253
28 -260 40 -4 7 -8 27 -8 44 0 40 -13 37 215 59 39 4 77 8 85 10 8 1 24 3 34
3 50 2 -5 12 -163 30 -95 10 -174 21 -176 23 -2 2 -7 22 -11 44 l-6 40 124 13
c67 7 148 15 178 18 70 7 90 23 30 24 -25 0 -110 8 -190 17 l-145 17 -6 43
c-3 23 -3 42 0 42 5 0 124 13 331 36 30 3 56 7 58 9 1 1 -69 10 -155 20 -270
30 -248 24 -251 68 -4 42 -2 43 78 51 204 19 300 31 300 38 0 4 -8 8 -18 8
-24 0 -376 40 -377 43 -1 1 -9 14 -18 29 -9 15 -13 29 -9 31 4 3 41 8 82 11
41 4 129 14 195 21 66 8 131 15 144 15 47 0 11 12 -61 20 -458 52 -441 50
-457 73 -9 12 -31 39 -49 59 l-33 36 31 279 c16 153 37 339 45 413 8 74 15
153 15 175 0 34 -33 158 -158 603 l-29 102 78 0 77 0 18 -100z m-1176 -735 l0
-105 185 0 185 0 0 105 0 105 95 0 95 0 0 -105 0 -105 180 0 179 0 3 103 3
102 88 3 88 3 -6 -48 c-3 -26 -10 -86 -15 -132 -5 -46 -11 -85 -12 -86 -2 -1
-113 -14 -248 -29 -134 -15 -246 -29 -249 -31 -2 -3 3 -5 11 -5 9 0 76 -7 150
-15 73 -8 151 -17 173 -19 22 -3 66 -8 98 -12 l58 -6 -7 -32 c-3 -17 -8 -34
-10 -37 -2 -3 -89 -14 -194 -24 -104 -10 -187 -22 -183 -25 5 -4 84 -15 176
-24 93 -10 176 -20 184 -23 11 -4 13 -17 9 -52 -3 -25 -8 -71 -12 -102 l-6
-57 -97 66 c-110 75 -203 119 -328 158 -109 34 -164 34 -272 -1 -151 -48 -266
-110 -403 -216 l-28 -21 -1 21 c-1 12 -2 24 -3 29 -1 4 -5 48 -10 97 -4 50 -9
108 -12 130 -16 142 -43 479 -38 486 3 5 43 9 90 9 l84 0 0 -105z m370 -585
l0 -70 95 0 95 0 0 71 0 71 27 -7 c15 -3 56 -19 90 -33 61 -26 63 -28 63 -64
l0 -38 -90 0 -90 0 0 -85 0 -85 -30 -1 c-16 0 -55 0 -85 0 -30 0 -59 0 -65 0
-6 1 -10 36 -10 86 l0 85 -95 0 -95 0 0 34 c0 41 9 49 91 80 99 38 99 38 99
-44z m-192 -157 c3 -95 9 -90 -115 -85 l-73 4 0 58 c0 53 3 61 31 85 28 23 39
26 93 23 l61 -3 3 -82z"/>
<path d="M441 2628 c0 -7 8 -35 17 -63 15 -44 20 -50 42 -47 14 1 128 13 253
27 126 14 236 25 245 25 27 0 8 8 -33 14 -47 7 -185 23 -270 31 -33 4 -89 11
-125 16 -92 12 -130 11 -129 -3z"/>
<path d="M490 2452 c0 -5 7 -32 16 -61 l15 -53 37 6 c20 4 102 13 182 21 80 9
171 18 203 22 31 3 55 8 52 11 -7 7 4 6 -235 31 -107 12 -212 23 -232 26 -21
3 -38 1 -38 -3z"/>
<path d="M546 2257 c4 -12 6 -37 6 -54 -1 -29 2 -33 24 -33 23 0 266 26 324
35 14 2 42 4 63 4 20 1 37 5 37 9 0 7 -151 26 -380 48 -30 3 -61 7 -68 10 -10
3 -11 -2 -6 -19z"/>
<path d="M539 2074 c-1 -16 -3 -42 -5 -58 l-3 -28 57 6 c31 4 77 9 102 12 25
2 59 6 75 9 17 2 68 7 114 11 143 11 148 19 21 33 -63 7 -128 14 -145 16 -16
2 -57 7 -90 10 -33 3 -75 8 -92 12 -31 5 -33 3 -34 -23z"/>
<path d="M820 1930 l0 -50 -50 0 -50 0 0 -55 0 -55 50 0 50 0 0 -95 0 -95 50
0 50 0 0 95 c0 104 -5 96 65 99 29 1 30 3 33 54 l3 52 -50 0 -51 0 0 50 0 50
-50 0 -50 0 0 -50z"/>
<path d="M502 1696 l-3 -56 49 0 c27 0 64 3 81 6 29 6 31 9 31 50 0 36 -3 44
-19 44 -10 0 -45 3 -77 6 l-59 6 -3 -56z"/>
<path d="M490 1578 c-13 -117 -13 -118 9 -118 19 0 338 34 421 45 19 2 48 4
64 5 78 1 -30 20 -199 35 -38 3 -81 8 -95 10 -14 3 -52 7 -85 10 -33 3 -72 8
-87 11 -16 3 -28 4 -28 2z"/>
<path d="M467 1344 c-3 -32 -4 -60 -2 -62 2 -2 46 1 97 7 103 13 121 15 293
32 66 6 129 15 139 19 11 3 -58 14 -155 24 -96 10 -185 19 -199 22 -14 2 -57
6 -96 10 l-71 6 -6 -58z"/>
<path d="M451 1179 c-1 -29 -3 -57 -4 -63 -1 -6 9 -10 23 -9 73 5 549 57 547
59 -3 3 -205 26 -419 49 -27 3 -70 7 -96 10 l-48 6 -3 -52z"/>
<path d="M436 1038 c-3 -13 -6 -43 -6 -68 l0 -46 198 22 c108 12 235 25 282
29 47 4 88 10 92 14 4 4 -72 15 -170 25 -97 10 -186 20 -197 21 -11 2 -47 6
-80 10 -33 3 -72 8 -86 11 -21 4 -28 1 -33 -18z"/>
<path d="M416 819 c-4 -34 -5 -63 -2 -66 4 -4 177 12 351 32 109 13 222 25
239 25 47 0 3 9 -94 20 -58 6 -123 13 -145 16 -177 20 -303 34 -321 34 -19 0
-22 -8 -28 -61z"/>
<path d="M400 678 c0 -18 -3 -50 -7 -72 l-6 -38 49 6 c96 12 125 15 447 48 64
7 117 15 117 19 0 3 -36 9 -79 13 -43 3 -96 8 -117 11 -78 10 -386 45 -395 45
-5 0 -9 -15 -9 -32z"/>
<path d="M386 512 c-2 -15 -7 -48 -11 -74 -6 -46 -6 -47 22 -43 32 3 129 14
188 20 22 3 125 14 229 25 105 11 192 23 195 25 2 3 0 5 -5 5 -17 0 -558 60
-586 64 -23 5 -27 1 -32 -22z"/>
<path d="M365 314 c-3 -27 -7 -60 -9 -73 -4 -23 -3 -24 63 -18 88 8 450 46
481 51 14 3 45 5 70 6 82 3 14 18 -160 35 -164 17 -184 19 -270 29 -25 3 -73
8 -107 12 l-61 6 -7 -48z"/>
<path d="M2680 2638 c0 -7 32 -112 36 -119 2 -3 29 -2 61 2 32 4 92 11 133 15
41 3 77 8 80 9 3 2 42 6 88 10 46 4 91 8 100 10 9 2 32 4 51 4 19 1 32 3 30 5
-12 11 -579 74 -579 64z"/>
<path d="M2733 2444 c3 -10 11 -38 18 -62 12 -42 13 -43 48 -37 20 3 79 10
131 15 387 40 385 37 75 70 -110 12 -217 24 -239 27 -34 5 -38 4 -33 -13z"/>
<path d="M2789 2244 c4 -16 7 -39 5 -51 -5 -29 -10 -29 241 -2 203 22 253 33
168 38 -26 1 -49 4 -52 5 -3 2 -44 7 -91 11 -47 4 -87 9 -90 10 -3 2 -47 7
-97 10 l-92 7 8 -28z"/>
<path d="M2786 2089 c-3 -8 -7 -33 -9 -56 -3 -32 -1 -43 9 -43 26 0 468 50
471 54 2 1 -92 13 -209 25 -117 13 -223 25 -235 28 -14 3 -25 0 -27 -8z"/>
<path d="M3060 1930 l0 -50 -50 0 -50 0 0 -56 c0 -51 2 -55 23 -54 12 1 34 2
50 1 l27 -1 0 -95 0 -95 50 0 50 0 0 95 c0 104 -5 97 68 98 l32 1 0 53 0 53
-50 0 -50 0 0 50 0 50 -50 0 -50 0 0 -50z"/>
<path d="M2746 1720 c-3 -18 -6 -45 -6 -61 0 -26 3 -27 33 -24 46 7 111 14
120 15 4 0 7 20 7 45 0 43 -1 45 -29 45 -15 0 -48 3 -73 6 -44 6 -45 6 -52
-26z"/>
<path d="M2737 1573 c-3 -5 -8 -32 -12 -60 -5 -41 -4 -53 7 -53 18 0 289 28
423 43 l110 13 -100 12 c-142 18 -158 20 -275 32 -58 6 -115 13 -127 16 -12 2
-24 1 -26 -3z"/>
<path d="M2715 1388 c-2 -7 -6 -35 -8 -61 l-5 -49 57 6 c110 12 166 19 181 21
8 2 76 8 150 15 74 7 141 15 147 19 10 5 -460 62 -505 61 -7 0 -14 -6 -17 -12z"/>
<path d="M1293 802 c-55 -3 -63 -6 -63 -22 0 -14 7 -20 23 -20 13 0 31 -6 42
-14 16 -12 18 -30 19 -197 2 -235 1 -241 -47 -253 -26 -7 -37 -15 -35 -25 3
-13 24 -16 128 -17 69 -1 133 0 143 3 25 7 21 33 -6 33 -12 0 -33 7 -45 16
-20 13 -22 24 -22 95 l0 80 37 -3 c33 -3 42 -10 89 -76 96 -136 121 -152 242
-152 54 0 63 2 60 17 -2 9 -16 20 -32 24 -35 10 -87 58 -128 119 -17 25 -42
57 -55 72 l-25 26 36 17 c94 45 110 164 32 233 -57 50 -122 57 -393 44z m240
-43 c46 -12 77 -57 77 -111 0 -78 -38 -114 -131 -125 l-49 -6 0 127 0 126 33
0 c17 0 49 -5 70 -11z"/>
<path d="M1988 793 c-60 -20 -120 -71 -156 -131 -24 -42 -27 -57 -27 -137 0
-102 18 -147 81 -209 79 -77 255 -93 388 -37 l45 20 3 83 c3 77 5 83 28 95 14
7 25 18 25 25 0 10 -32 13 -135 13 -120 0 -135 -2 -138 -17 -3 -14 3 -18 28
-18 61 0 70 -12 70 -96 0 -71 -1 -75 -26 -84 -140 -53 -278 108 -245 287 13
68 32 103 75 141 85 74 214 46 261 -57 12 -27 25 -41 37 -41 16 0 18 9 18 79
l0 78 -42 0 c-24 -1 -67 5 -97 11 -71 16 -136 14 -193 -5z"/>
<path d="M2473 791 c-74 -34 -99 -107 -65 -184 20 -45 51 -71 154 -130 91 -53
113 -114 57 -161 -62 -53 -143 -22 -185 72 -8 17 -21 32 -30 32 -14 0 -15 -9
-9 -67 9 -86 13 -96 38 -89 11 3 50 -2 86 -11 78 -18 131 -8 181 33 62 52 76
123 40 193 -21 42 -54 72 -119 111 -71 42 -122 80 -128 95 -12 33 6 64 46 76
54 16 107 -10 139 -68 13 -24 30 -43 39 -43 13 0 14 11 8 68 -4 37 -9 69 -11
71 -2 2 -18 5 -36 6 -18 1 -62 5 -98 9 -53 6 -72 3 -107 -13z"/>
</g>
</svg>
