<svg version="1.0" xmlns="http://www.w3.org/2000/svg"
 width="900.000000pt" height="900.000000pt" viewBox="0 0 900.000000 900.000000"
 preserveAspectRatio="xMidYMid meet">
<g transform="translate(0.000000,900.000000) scale(0.100000,-0.100000)"
fill="#113B92" stroke="none">
<path d="M4285 7639 c-127 -10 -318 -36 -415 -56 -41 -8 -86 -18 -100 -20 -48
-10 -267 -72 -326 -93 -183 -66 -361 -146 -489 -218 -33 -19 -80 -46 -105 -60
-70 -39 -256 -168 -355 -247 -434 -346 -763 -790 -970 -1313 -62 -156 -83
-222 -124 -387 l-27 -110 -403 -5 -403 -5 1 -615 c0 -338 1 -623 1 -632 0 -17
26 -18 399 -18 l399 0 15 -47 c8 -27 20 -73 27 -103 19 -84 83 -274 130 -389
158 -384 368 -705 655 -1000 419 -430 930 -729 1490 -870 304 -77 498 -101
815 -101 640 0 1185 157 1736 501 316 197 658 523 880 839 102 146 124 178
124 183 0 3 20 39 44 80 45 76 152 293 175 357 8 19 19 49 26 65 15 33 65 186
85 255 7 25 16 56 20 70 5 14 11 39 15 55 3 17 11 47 16 67 l10 38 392 2 392
3 0 630 0 630 -392 3 -392 2 -10 38 c-5 20 -13 51 -16 67 -4 17 -10 41 -15 55
-4 14 -13 45 -20 70 -160 569 -503 1105 -961 1501 -232 200 -437 334 -709 465
-111 53 -133 63 -182 83 -13 5 -47 19 -77 31 -105 43 -296 99 -426 125 -38 8
-90 19 -115 25 -136 30 -472 61 -630 59 -47 -1 -130 -5 -185 -10z m500 -1125
c235 -36 469 -110 664 -210 338 -174 610 -424 811 -744 88 -141 207 -400 194
-422 -8 -12 -3901 -10 -3909 2 -4 6 -2 16 3 23 5 7 15 30 22 52 48 151 218
438 349 590 105 122 365 350 441 387 8 5 44 26 80 49 80 50 253 134 328 159
32 10 82 28 112 38 59 21 194 52 330 75 123 21 436 22 575 1z m1670 -2664 c3
-5 1 -17 -4 -27 -5 -10 -17 -38 -26 -63 -32 -85 -117 -255 -168 -335 -171
-270 -426 -517 -695 -676 -93 -55 -266 -139 -286 -139 -7 0 -16 -3 -20 -7 -10
-11 -121 -50 -176 -63 -19 -4 -60 -15 -90 -23 -143 -38 -263 -51 -485 -51
-214 0 -342 12 -470 45 -22 6 -58 15 -80 21 -48 12 -226 74 -275 95 -454 199
-810 535 -1031 974 -51 100 -99 219 -99 244 0 13 237 15 1949 15 1234 0 1952
-4 1956 -10z"/>
</g>
</svg>
