<svg version="1.0" xmlns="http://www.w3.org/2000/svg"
 width="1336.000000pt" height="1705.000000pt" viewBox="0 0 1336.000000 1705.000000"
 preserveAspectRatio="xMidYMid meet">
<g transform="translate(0.000000,1705.000000) scale(0.100000,-0.100000)"
fill="#000000" stroke="none">
<path d="M7080 16919 c-1645 -57 -3499 -674 -5001 -1664 -1059 -698 -1730
-1427 -1854 -2015 -20 -93 -19 -246 1 -324 93 -361 461 -565 1184 -655 416
-52 670 -61 1965 -71 1325 -10 1702 -24 2160 -81 521 -64 782 -186 720 -336
-30 -71 -181 -205 -410 -365 -44 -30 -242 -160 -440 -288 -681 -440 -964 -649
-1205 -891 -231 -233 -349 -451 -350 -647 0 -124 48 -276 126 -393 54 -82 196
-220 297 -287 232 -157 571 -293 1004 -401 315 -79 529 -120 1126 -216 221
-36 447 -74 502 -86 462 -97 732 -304 815 -625 58 -221 25 -623 -77 -935 -47
-145 -163 -377 -250 -498 -176 -246 -459 -485 -735 -619 -254 -124 -551 -191
-851 -192 l-117 0 7 73 c15 136 8 493 -11 617 -37 249 -100 449 -206 665 -214
435 -552 765 -1015 990 -438 213 -900 306 -1450 292 -578 -15 -1078 -168
-1540 -471 -234 -154 -486 -383 -660 -601 -260 -325 -469 -736 -581 -1145 -79
-287 -109 -520 -108 -845 2 -958 357 -1873 1034 -2665 123 -145 409 -426 560
-552 930 -773 2137 -1251 3580 -1417 302 -35 573 -52 935 -58 483 -8 893 18
1315 83 1412 217 2711 795 3710 1650 151 129 500 478 630 629 745 871 1168
1876 1285 3057 23 228 30 649 16 863 -71 1033 -467 1888 -1226 2650 -262 264
-509 469 -945 790 -176 129 -355 269 -365 285 -3 5 56 100 132 212 245 363
276 411 370 568 460 764 703 1596 703 2405 0 575 -159 1171 -441 1652 -144
245 -295 440 -509 654 -288 289 -560 483 -953 679 -771 385 -1766 568 -2877
529z m615 -569 c1619 -80 2783 -681 3305 -1706 136 -267 219 -535 267 -859 25
-168 24 -611 0 -815 -59 -480 -194 -918 -422 -1365 -116 -228 -219 -396 -463
-759 -233 -347 -293 -456 -313 -567 -31 -175 48 -340 249 -514 42 -37 212
-169 377 -293 477 -358 628 -484 865 -722 327 -327 558 -646 736 -1015 231
-481 334 -956 334 -1548 0 -573 -86 -1126 -255 -1632 -145 -433 -371 -878
-636 -1252 -838 -1179 -2252 -2043 -3899 -2382 -532 -109 -968 -147 -1595
-138 -388 5 -484 10 -800 42 -1218 123 -2301 511 -3130 1119 -267 196 -579
487 -771 719 -556 673 -854 1459 -854 2253 0 191 14 331 50 514 167 839 727
1528 1480 1823 712 279 1656 188 2265 -218 262 -174 431 -364 561 -630 122
-250 184 -519 184 -805 l0 -105 -40 69 c-65 111 -123 186 -201 262 -90 85
-143 123 -251 174 -142 68 -218 84 -408 84 -160 1 -168 0 -252 -30 -123 -44
-222 -109 -315 -208 -132 -139 -187 -273 -202 -496 -5 -65 -11 -123 -15 -129
-12 -19 -68 -12 -125 14 -70 33 -177 141 -227 230 -50 91 -91 206 -109 312
-16 90 -19 341 -6 446 4 31 4 56 -1 55 -30 -10 -275 -320 -355 -448 -264 -425
-310 -863 -134 -1269 92 -212 212 -373 468 -627 106 -105 193 -196 193 -201 0
-17 -44 -59 -91 -85 -149 -86 -466 -125 -797 -99 -85 7 -155 11 -158 9 -6 -6
138 -172 240 -277 521 -534 1103 -821 1786 -882 163 -14 474 -7 648 15 276 36
627 116 976 223 209 63 320 79 343 48 33 -46 4 -205 -68 -373 -101 -239 -264
-481 -441 -655 -81 -80 -104 -107 -88 -107 41 0 369 52 510 81 957 197 1701
622 2245 1284 175 213 306 411 492 742 137 247 188 326 237 372 31 30 39 34
63 25 100 -35 204 -339 243 -714 13 -126 13 -446 -1 -568 -5 -53 -21 -153 -35
-221 -14 -68 -23 -126 -20 -128 9 -10 310 294 410 413 547 655 769 1380 670
2188 -30 247 -81 465 -189 807 -94 298 -108 369 -81 433 20 49 54 57 189 45
266 -23 535 -98 890 -250 76 -33 174 -78 219 -100 92 -46 91 -52 28 92 -258
587 -658 1086 -1197 1492 -590 444 -1373 783 -2388 1032 -417 102 -789 175
-1615 315 -851 145 -1198 222 -1405 313 l-79 35 39 7 c530 86 1118 331 1925
803 196 115 562 343 745 465 229 152 334 233 765 587 188 154 294 228 365 255
38 15 49 16 76 5 44 -19 85 -80 113 -169 41 -129 51 -220 50 -451 0 -240 -16
-375 -64 -568 -17 -64 -30 -120 -30 -125 0 -10 196 122 285 191 100 79 285
263 365 362 248 311 396 661 441 1045 15 130 6 371 -20 497 -67 329 -213 592
-521 939 -101 113 -180 215 -180 232 0 20 77 83 146 119 151 79 346 118 586
118 163 0 262 -10 432 -45 66 -14 122 -23 124 -20 9 9 -195 251 -306 363 -367
369 -763 580 -1252 667 -128 23 -461 31 -626 16 -277 -26 -544 -87 -944 -216
-204 -65 -373 -111 -447 -120 l-53 -7 0 29 c0 50 30 134 87 245 157 303 478
619 853 839 l75 44 -55 7 c-106 12 -414 8 -550 -8 -700 -81 -1529 -383 -2725
-994 -318 -162 -965 -499 -1435 -747 -945 -500 -1490 -718 -1870 -748 -153
-12 -280 25 -361 106 -50 50 -57 91 -36 194 44 214 252 513 578 830 679 659
1722 1297 2844 1740 1171 463 2382 679 3490 625z m-916 -1462 c-195 -241 -313
-503 -326 -720 -7 -116 8 -168 69 -234 61 -66 123 -89 243 -88 129 0 246 26
529 116 492 158 707 212 945 239 131 15 467 6 576 -14 262 -50 484 -135 725
-280 l85 -51 -95 -13 c-268 -36 -483 -130 -607 -266 -74 -82 -105 -153 -111
-252 -7 -138 31 -208 244 -452 156 -178 223 -266 290 -378 129 -216 184 -415
184 -664 0 -324 -106 -674 -294 -970 l-41 -66 -2 50 c-22 444 -133 709 -340
812 -168 83 -344 49 -565 -110 -42 -30 -189 -147 -326 -260 -445 -365 -582
-461 -1132 -794 -1114 -674 -1765 -944 -2219 -921 -107 6 -143 18 -160 55 -27
58 59 157 304 353 224 178 442 328 1025 706 405 262 604 410 765 569 201 199
285 364 285 561 0 169 -63 323 -188 455 -264 281 -755 413 -1742 470 -102 5
-709 14 -1350 19 -641 5 -1227 12 -1302 16 l-137 7 147 62 c348 147 687 317
1582 794 1401 748 2122 1070 2870 1285 126 36 127 35 69 -36z m1444 -6758
c916 -251 1729 -686 2281 -1220 124 -120 332 -357 323 -367 -3 -2 -34 4 -69
15 -189 59 -463 99 -599 90 -202 -15 -359 -214 -359 -454 0 -99 19 -182 100
-439 173 -552 205 -718 204 -1085 0 -198 -4 -256 -23 -369 -29 -172 -77 -347
-136 -497 -50 -127 -209 -447 -232 -465 -11 -9 -13 -1 -13 48 0 137 -40 354
-94 518 -82 245 -191 392 -342 462 -49 23 -73 27 -139 28 -185 0 -307 -108
-492 -435 -33 -58 -93 -163 -133 -235 -425 -754 -923 -1207 -1687 -1534 -126
-54 -463 -175 -469 -169 -1 2 20 48 46 103 57 117 102 247 125 363 24 118 17
295 -15 376 -44 113 -146 186 -261 186 -81 0 -266 -37 -479 -96 -683 -189
-899 -227 -1280 -228 -238 -1 -334 8 -530 50 -303 65 -639 216 -907 407 l-71
52 106 28 c161 41 278 102 368 191 102 100 129 160 129 281 0 145 -14 167
-275 425 -119 118 -237 240 -262 270 -102 124 -176 261 -214 400 -27 98 -26
353 3 475 12 50 26 103 33 120 l11 29 43 -91 c60 -126 116 -205 206 -293 82
-80 151 -126 252 -168 55 -23 77 -26 173 -27 124 0 181 18 243 78 74 71 101
158 111 353 7 129 10 146 39 207 75 161 253 261 430 242 340 -36 591 -330 684
-800 17 -86 22 -145 22 -275 -1 -196 -20 -302 -83 -460 -23 -57 -40 -105 -38
-107 2 -2 49 32 103 75 174 138 338 331 440 517 l41 76 219 4 c782 14 1381
255 1865 751 372 382 606 893 674 1469 19 163 19 432 1 546 -36 222 -123 429
-243 576 l-45 56 36 -7 c20 -4 100 -25 179 -46z"/>
</g>
</svg>
