<svg version="1.0" xmlns="http://www.w3.org/2000/svg"
 width="122.000000pt" height="119.000000pt" viewBox="0 0 122.000000 119.000000"
 preserveAspectRatio="xMidYMid meet">
<g transform="translate(0.000000,119.000000) scale(0.100000,-0.100000)"
fill="#30C6CA" stroke="none">
<path d="M0 595 l0 -595 610 0 610 0 0 595 0 595 -610 0 -610 0 0 -595z m470
220 c111 -231 113 -236 99 -266 l-15 -31 -114 241 -115 241 -74 0 c-59 0 -72
-3 -68 -14 28 -72 372 -765 377 -759 4 4 96 191 205 416 l198 407 78 0 78 0
-64 -132 c-35 -73 -135 -281 -224 -463 -154 -316 -162 -330 -190 -333 l-30 -3
131 268 c301 617 299 613 274 613 -19 0 -48 -55 -231 -436 -116 -239 -216
-438 -224 -441 -7 -3 -17 0 -22 8 -13 21 -439 907 -439 913 0 3 58 6 128 6
l128 0 114 -235z m370 73 c-43 -90 -124 -257 -180 -373 l-102 -210 -140 285
c-77 157 -149 304 -159 328 l-18 42 27 0 c26 0 34 -14 157 -269 71 -149 131
-268 133 -266 5 5 258 526 283 583 16 36 23 42 48 42 l30 0 -79 -162z"/>
</g>
</svg>
