<svg version="1.0" xmlns="http://www.w3.org/2000/svg"
 width="400.000000pt" height="400.000000pt" viewBox="0 0 400.000000 400.000000"
 preserveAspectRatio="xMidYMid meet">
<g transform="translate(0.000000,400.000000) scale(0.100000,-0.100000)"
fill="#E60001" stroke="none">
<path d="M1711 3934 c-849 -123 -1527 -805 -1645 -1653 -21 -145 -21 -417 0
-562 89 -639 502 -1203 1089 -1484 174 -83 373 -143 564 -169 145 -21 417 -21
562 0 852 118 1535 801 1653 1653 21 145 21 417 0 562 -85 611 -461 1147
-1014 1446 l-75 41 -80 -27 c-219 -74 -383 -216 -480 -416 -53 -109 -74 -189
-78 -290 l-2 -76 115 -38 c208 -69 336 -141 460 -257 182 -172 271 -375 287
-655 16 -289 -98 -583 -311 -795 -137 -136 -289 -223 -474 -270 -604 -154
-1199 245 -1339 896 -28 133 -26 421 5 559 47 208 131 403 253 587 100 151
303 353 453 453 333 221 740 351 1064 339 101 -3 102 -3 70 13 -104 53 -342
120 -507 143 -138 20 -438 19 -570 0z"/>
</g>
</svg>
