<svg xmlns="http://www.w3.org/2000/svg" viewBox="0 0 150 150">
<g transform="translate(0.000000,150.000000) scale(0.100000,-0.100000)"
fill="#0071CB" stroke="none">
<path d="M737 1428 c-30 -46 -728 -1258 -733 -1273 -5 -13 65 -15 603 -15
l610 0 11 -25 c28 -62 141 -86 207 -45 89 55 85 194 -7 250 -62 38 -161 17
-195 -41 l-17 -29 -508 0 c-279 0 -508 3 -508 6 0 12 552 964 559 964 4 0 101
-162 215 -360 115 -199 213 -363 217 -366 8 -4 99 47 99 56 -1 13 -520 895
-529 898 -5 2 -16 -7 -24 -20z"/>
<path d="M510 643 c-65 -25 -103 -83 -103 -158 0 -56 18 -98 57 -134 35 -32
133 -42 171 -17 23 15 25 15 25 1 0 -13 9 -15 43 -13 l42 3 3 158 3 157 -46 0
c-25 0 -45 -5 -45 -10 0 -6 -13 -4 -30 5 -28 15 -90 19 -120 8z m105 -89 c24
-10 46 -60 39 -89 -8 -32 -49 -65 -81 -65 -61 0 -97 96 -53 140 20 20 63 26
95 14z"/>
<path d="M776 628 c4 -7 27 -41 51 -75 l43 -62 -54 -77 c-30 -43 -53 -81 -50
-86 3 -4 25 -8 49 -8 39 0 47 4 71 38 16 20 31 41 35 45 4 5 21 -12 38 -37 30
-43 35 -46 76 -46 24 0 47 5 50 10 4 6 -16 42 -44 80 -28 38 -51 75 -51 81 0
6 20 39 45 73 25 35 45 66 45 70 0 3 -24 6 -53 6 -52 0 -54 -1 -76 -41 l-23
-41 -25 41 c-24 40 -25 41 -79 41 -41 0 -53 -3 -48 -12z"/>
</g>
</svg>
