
<svg version="1.0" xmlns="http://www.w3.org/2000/svg"
 width="1252.000000pt" height="1252.000000pt" viewBox="0 0 1252.000000 1252.000000"
 preserveAspectRatio="xMidYMid meet">
<g transform="translate(0.000000,1252.000000) scale(0.100000,-0.100000)"
fill="#3B8992" stroke="none">
<path d="M0 6260 l0 -6260 6260 0 6260 0 0 6260 0 6260 -6260 0 -6260 0 0
-6260z m1910 1663 c0 -13 4 -22 9 -18 16 9 22 -71 19 -230 -2 -111 -6 -150
-15 -151 -7 -1 -94 -2 -192 -3 l-180 -1 0 -744 c-1 -488 2 -747 9 -751 19 -12
9 -30 -25 -46 -20 -9 -38 -13 -40 -9 -3 5 -84 9 -181 10 -167 1 -175 0 -170
-18 6 -16 1 -19 -38 -19 -29 0 -47 5 -50 14 -4 10 4 12 34 8 50 -6 57 19 8 29
-26 5 -30 9 -18 16 13 8 15 102 15 750 0 407 -4 740 -8 740 -5 0 -5 5 -2 11 5
7 -44 10 -161 9 -181 -3 -247 8 -211 34 15 12 17 33 17 179 l0 165 38 5 c20 2
278 5 572 5 294 1 538 1 543 1 4 1 7 9 7 19 0 14 -2 15 -10 2 -11 -18 -25 -7
-17 14 9 24 47 8 47 -21z m1550 -73 c-7 -14 -10 -296 -10 -937 0 -505 0 -925
0 -933 0 -15 -50 -23 -50 -7 0 10 -322 8 -340 -3 -9 -5 -19 -5 -27 2 -7 6 -13
7 -13 4 0 -4 -7 0 -16 8 -8 9 -12 20 -9 26 3 5 0 10 -7 11 -10 0 -10 2 0 6 9
4 12 85 12 359 0 195 -3 354 -7 354 -97 7 -396 1 -401 -7 -4 -6 -5 -172 -2
-370 4 -309 3 -360 -10 -373 -13 -13 -49 -15 -226 -12 l-211 3 3 -28 4 -28
-12 25 c-18 35 -20 1906 -3 1933 11 16 33 18 223 20 180 2 212 0 220 -13 5 -9
10 -149 11 -330 1 -191 6 -316 11 -318 6 -2 10 -8 10 -13 0 -6 -5 -7 -11 -4
-7 5 -9 -8 -7 -37 2 -32 7 -42 18 -40 14 3 306 2 360 -1 l25 -2 2 374 c1 281
5 376 14 382 12 7 401 6 429 -2 10 -3 16 5 20 26 4 26 5 25 8 -12 2 -23 -2
-51 -8 -63z m730 -922 c0 -571 -4 -938 -9 -938 -5 0 -17 -7 -25 -16 -9 -8 -16
-10 -16 -4 0 7 -56 10 -188 10 -130 -1 -196 2 -215 11 -29 13 -35 25 -16 31
18 6 19 1828 2 1828 -18 0 -16 7 8 33 19 21 28 22 212 24 133 1 193 5 195 13
2 6 15 -4 28 -21 l24 -33 0 -938z m3175 982 c9 8 15 9 15 2 0 -6 -5 -14 -10
-17 -8 -5 -7 -12 2 -22 10 -12 9 -17 -5 -25 -10 -5 -15 -13 -12 -19 4 -5 -4
-9 -17 -10 -13 0 -17 -3 -10 -6 9 -3 5 -12 -13 -28 -14 -13 -25 -29 -25 -35 0
-5 -5 -10 -11 -10 -6 0 -9 -9 -6 -20 4 -15 0 -20 -15 -20 -10 0 -16 -5 -13
-10 3 -6 -1 -13 -9 -16 -9 -3 -16 -15 -16 -25 0 -10 -7 -19 -15 -19 -17 0 -20
-16 -5 -25 13 -8 13 -25 -1 -25 -5 0 -7 5 -4 10 11 19 -10 10 -28 -11 -10 -11
-16 -27 -13 -34 3 -8 -4 -17 -16 -21 -15 -4 -17 -8 -8 -14 13 -8 5 -30 -11
-30 -6 0 -7 5 -4 10 3 6 2 10 -3 10 -12 0 -22 -24 -22 -51 0 -12 -7 -19 -20
-19 -11 0 -20 -6 -20 -14 0 -8 -6 -21 -13 -28 -19 -19 -21 -29 -5 -40 8 -6 5
-7 -12 -2 -23 6 -24 6 -10 -11 9 -11 10 -16 3 -11 -7 4 -13 2 -13 -3 0 -6 -5
-10 -11 -9 -6 2 -14 -3 -16 -9 -3 -7 3 -13 12 -13 13 0 14 -3 4 -22 -8 -15
-14 -18 -17 -10 -5 17 -52 -27 -52 -50 0 -9 -6 -19 -12 -21 -10 -4 -10 -8 1
-15 7 -5 14 -21 14 -36 0 -28 20 -51 37 -41 6 4 10 -10 10 -37 0 -24 7 -52 15
-62 8 -11 15 -28 15 -38 0 -10 4 -18 9 -18 5 0 17 -25 27 -55 9 -31 21 -58 25
-61 5 -3 9 -14 9 -25 0 -10 4 -19 9 -19 5 0 11 -18 15 -40 3 -22 11 -40 16
-40 6 0 10 -7 10 -15 0 -8 4 -23 9 -33 5 -9 17 -35 27 -57 11 -22 22 -41 27
-43 4 -2 7 -10 7 -17 0 -7 7 -26 15 -41 8 -16 15 -37 15 -46 0 -10 4 -18 8
-18 4 0 8 -10 9 -22 1 -12 9 -26 18 -30 8 -5 15 -16 15 -23 0 -8 5 -15 10 -15
6 0 10 -18 10 -39 0 -22 7 -46 15 -55 8 -8 15 -25 15 -37 0 -22 1 -22 13 -5
13 17 14 18 20 2 4 -10 3 -15 -3 -11 -6 4 -10 -7 -10 -24 0 -17 5 -31 10 -31
6 0 10 -8 10 -19 0 -10 7 -24 15 -31 8 -7 15 -19 15 -27 0 -8 7 -21 15 -29 8
-8 12 -21 9 -29 -4 -9 0 -15 10 -15 9 0 16 -4 16 -10 0 -14 -27 -13 -32 2 -3
7 -9 8 -18 3 -8 -5 -93 -8 -190 -6 -105 1 -186 -2 -202 -8 -23 -9 -28 -8 -28
4 0 8 -9 15 -20 15 -14 0 -21 9 -26 35 -3 19 -10 35 -14 35 -4 0 -10 23 -14
50 -4 28 -11 50 -16 50 -6 0 -10 11 -10 25 0 14 -5 25 -11 25 -5 0 -8 4 -5 9
3 5 -5 29 -18 54 -14 25 -22 48 -19 51 4 3 1 6 -5 6 -7 0 -11 3 -10 8 2 11
-14 66 -24 79 -5 6 -18 41 -28 78 -11 37 -26 78 -35 91 -8 13 -15 36 -15 52 0
16 -7 35 -15 42 -13 10 -15 9 -15 -9 0 -11 -5 -21 -11 -21 -7 0 -8 7 -4 18 16
37 17 54 7 75 -5 12 -13 30 -16 40 -8 25 -35 21 -48 -8 -6 -14 -17 -25 -24
-25 -6 0 -15 -11 -18 -25 -4 -14 -11 -25 -16 -25 -6 0 -10 -6 -10 -14 0 -8 -6
-16 -12 -18 -9 -3 -14 -30 -15 -79 -1 -41 -4 -128 -6 -194 -2 -66 -1 -156 2
-200 l6 -80 5 85 6 85 2 -89 c1 -50 -3 -104 -10 -123 -10 -27 -10 -38 0 -53
16 -27 15 -30 -8 -30 -11 0 -20 -3 -20 -7 0 -7 -431 -5 -438 1 -5 6 -2 1881 4
1901 5 20 12 21 217 21 192 0 213 -2 225 -18 7 -10 18 -16 23 -13 5 4 9 0 9
-9 0 -8 -4 -16 -9 -18 -4 -1 -11 -86 -14 -188 -3 -106 -1 -166 3 -140 l8 45
-4 -50 c-6 -82 -5 -97 11 -109 10 -8 12 -15 5 -26 -8 -13 -10 -12 -10 3 0 9
-5 17 -11 17 -8 0 -9 -11 -5 -32 11 -52 13 -122 3 -135 -6 -8 -5 -13 1 -13 6
0 9 -7 6 -15 -4 -8 -1 -15 5 -15 10 0 13 13 10 37 0 3 6 10 15 15 9 5 16 18
16 28 0 11 4 20 10 20 5 0 12 11 16 25 3 14 10 25 16 25 5 0 6 5 3 10 -3 6 0
10 8 10 8 0 17 9 20 21 4 15 0 23 -14 26 -21 6 -25 18 -8 28 6 4 17 -1 25 -11
13 -18 14 -18 20 3 3 13 10 20 15 17 5 -3 9 4 9 16 0 13 -4 19 -12 14 -7 -4
-8 -3 -4 4 4 6 13 9 21 6 9 -4 17 4 21 22 4 16 13 35 21 42 7 8 11 18 8 23 -4
5 -2 9 4 9 6 0 13 11 17 25 3 14 10 25 15 25 5 0 7 11 3 25 -5 20 -3 24 9 19
17 -6 37 23 30 44 -3 6 1 12 9 13 7 0 3 4 -9 9 -23 9 -32 30 -13 30 6 0 10 -4
10 -10 0 -5 8 -10 19 -10 18 0 51 52 51 80 0 6 5 8 10 5 6 -3 10 4 10 17 0 51
4 52 218 52 110 1 204 4 208 8 4 4 13 3 21 -3 10 -9 17 -8 28 1z m-2414 -11
c11 -5 19 -17 19 -25 0 -21 22 -41 40 -37 10 3 11 2 3 -4 -17 -13 -19 -35 -4
-70 14 -35 26 -42 34 -20 3 8 7 5 13 -7 5 -13 3 -21 -4 -24 -7 -2 -12 -12 -12
-22 0 -26 32 -80 48 -80 8 0 11 -9 8 -25 -3 -13 -1 -27 4 -30 4 -3 11 -20 14
-38 3 -18 15 -39 26 -47 14 -10 16 -16 7 -22 -9 -6 -9 -8 1 -8 6 0 12 -10 12
-22 0 -13 7 -36 15 -52 8 -15 15 -37 15 -48 0 -15 5 -18 20 -13 18 6 20 3 14
-19 -3 -14 -2 -26 3 -26 5 0 10 -14 10 -32 0 -18 5 -34 11 -36 7 -2 12 -15 12
-28 0 -13 4 -24 10 -24 10 0 26 -47 22 -67 -3 -14 39 -59 50 -56 4 2 5 -15 2
-37 -6 -38 7 -56 20 -27 3 6 4 -3 2 -20 -3 -18 -1 -35 4 -38 4 -2 10 -18 13
-35 4 -16 11 -30 16 -30 6 0 10 128 11 323 2 177 3 406 4 509 0 104 -3 189 -8
191 -5 2 -2 14 8 28 16 25 17 26 174 28 127 2 161 -1 170 -12 9 -10 13 -254
15 -961 2 -895 1 -946 -15 -946 -10 0 -18 -5 -18 -11 0 -5 -5 -7 -12 -3 -8 5
-9 1 -5 -12 7 -17 6 -18 -6 -2 -12 15 -35 17 -158 18 -79 1 -144 -2 -144 -7 0
-4 6 -7 13 -7 7 1 11 -3 9 -9 -2 -6 -14 -11 -28 -11 -17 -1 -25 6 -27 23 -2
14 -9 21 -17 17 -8 -3 -15 3 -17 15 -2 11 -7 19 -12 19 -17 -3 -28 30 -16 46
11 13 7 18 -12 15 -5 0 -8 17 -8 39 0 22 -4 40 -10 40 -5 0 -12 11 -16 25 -3
14 -10 25 -16 25 -5 0 -7 4 -4 9 3 5 -2 12 -11 15 -15 6 -15 8 -3 16 13 9 13
10 0 10 -13 0 -13 1 0 10 10 6 11 10 3 10 -7 0 -13 11 -13 25 0 14 -4 25 -9
25 -5 0 -12 11 -15 25 -4 14 -11 25 -16 25 -6 0 -10 14 -10 30 0 18 -6 33 -15
36 -8 4 -15 17 -15 30 0 13 -4 24 -10 24 -5 0 -10 12 -10 26 0 14 -11 40 -25
58 -14 18 -25 45 -25 59 0 15 -4 27 -10 27 -5 0 -10 9 -10 20 0 24 -31 90 -42
90 -4 0 -8 15 -8 34 0 18 -7 39 -15 46 -8 7 -15 23 -15 36 0 13 -4 24 -10 24
-5 0 -10 -5 -10 -12 0 -24 -10 0 -14 35 -3 20 -10 47 -17 59 -7 13 -11 23 -9
23 1 0 -7 22 -19 48 -12 26 -19 52 -16 57 3 6 2 10 -4 10 -6 0 -13 11 -17 25
-3 14 -10 22 -15 19 -5 -3 -10 5 -11 18 -2 42 -3 47 -11 54 -13 13 -8 -1175 5
-1212 9 -27 9 -35 -5 -49 -9 -9 -21 -13 -27 -10 -5 3 -10 3 -10 -2 0 -9 -294
-7 -328 3 -16 4 -21 12 -17 22 3 8 6 432 6 941 1 509 5 933 9 941 7 13 45 15
240 17 139 1 240 -2 251 -8z m-472 -2476 c-4 -25 3 -43 16 -43 11 0 15 -12 15
-44 0 -25 5 -48 10 -51 6 -3 10 -15 10 -26 0 -10 5 -19 10 -19 6 0 10 -18 10
-40 0 -22 4 -40 9 -40 5 0 12 -24 15 -52 4 -29 11 -55 17 -58 5 -4 10 -18 11
-33 1 -16 9 -27 18 -28 12 0 12 -2 1 -6 -11 -4 -11 -7 0 -14 9 -5 12 -25 10
-59 -2 -35 1 -50 8 -45 6 3 11 -1 11 -12 0 -17 22 -90 41 -138 4 -11 10 -33
13 -50 10 -59 19 -90 34 -114 10 -15 15 -41 13 -73 -2 -34 1 -48 8 -43 7 4 11
-3 11 -18 0 -14 11 -44 24 -68 12 -24 24 -61 25 -81 1 -20 10 -56 20 -79 11
-23 17 -48 14 -55 -2 -6 0 -15 6 -19 6 -3 11 -25 11 -48 0 -23 7 -51 15 -61 8
-11 15 -30 15 -43 0 -13 5 -23 12 -23 6 0 8 -3 5 -7 -4 -3 -2 -12 4 -19 6 -8
9 -20 6 -28 -3 -8 2 -16 14 -19 19 -5 27 -37 9 -37 -15 0 -12 -37 5 -54 8 -8
15 -30 15 -49 0 -20 5 -37 11 -39 5 -2 11 -26 13 -53 2 -50 22 -105 38 -105 4
0 8 -7 8 -15 0 -8 -7 -15 -15 -15 -8 0 -15 -5 -15 -10 0 -6 -11 -8 -25 -4 -15
4 -32 1 -42 -7 -13 -11 -17 -11 -20 -1 -4 9 -43 12 -149 12 -94 0 -143 -4
-139 -10 10 -17 -35 -11 -53 6 -9 10 -17 26 -18 38 0 12 -6 31 -12 43 -7 12
-12 37 -12 57 0 19 -4 38 -10 41 -5 3 -10 28 -10 54 0 31 -5 53 -15 61 -8 7
-15 28 -15 46 l0 34 -206 0 -206 -1 6 -25 c5 -18 2 -24 -9 -24 -11 0 -15 7
-13 23 3 19 -2 22 -39 25 l-41 3 -7 -43 c-4 -24 -7 -56 -7 -73 1 -20 -2 -25
-8 -15 -6 9 -10 2 -15 -26 -3 -21 -10 -47 -16 -56 -5 -10 -9 -29 -9 -42 0 -14
-4 -36 -10 -50 -5 -14 -6 -26 -1 -26 4 0 8 -6 8 -14 0 -24 -43 -29 -221 -27
-123 2 -171 0 -176 -9 -6 -9 -14 -6 -30 10 -18 18 -20 24 -9 31 8 5 11 9 7 9
-4 0 0 24 9 53 9 28 16 70 15 92 -1 22 1 34 4 28 11 -26 24 -12 24 27 0 22 5
40 10 40 6 0 9 3 8 8 -5 18 15 91 23 86 5 -3 9 6 9 20 0 14 4 26 9 26 5 0 11
23 13 52 3 29 11 54 17 56 6 2 11 19 11 38 0 19 3 34 8 34 8 0 33 84 33 115 0
11 6 30 14 42 8 12 15 31 15 43 0 11 4 20 9 20 5 0 13 29 16 65 4 36 11 63 15
60 5 -3 12 20 15 50 4 30 10 55 14 55 11 0 31 63 31 98 0 18 3 32 8 32 6 0 26
61 52 160 21 78 49 164 51 155 1 -5 5 8 9 30 5 22 11 51 15 65 5 19 4 22 -4
10 -9 -13 -11 -13 -11 3 0 9 7 17 15 17 8 0 15 7 15 15 0 8 5 15 10 15 6 0 10
22 10 49 0 31 5 53 15 61 8 7 15 25 15 41 0 15 5 31 10 34 6 3 10 15 10 26 0
11 8 29 19 40 17 19 31 20 210 20 112 0 191 4 191 10 0 5 7 9 15 9 8 0 14 -3
14 -7z m-2949 -23 c9 -5 55 -12 103 -16 48 -4 87 -11 87 -15 0 -5 14 -9 30 -9
29 0 69 -19 98 -47 7 -7 17 -13 21 -13 4 0 17 -9 30 -21 18 -17 25 -18 36 -9
11 9 15 9 15 1 0 -6 -4 -11 -10 -11 -5 0 -10 -7 -10 -15 0 -8 5 -15 11 -15 14
0 49 -39 49 -54 0 -7 9 -18 20 -26 13 -9 20 -26 20 -46 0 -30 20 -60 32 -49 3
3 3 -6 0 -20 -2 -14 1 -37 7 -53 6 -15 13 -36 15 -47 20 -112 11 -342 -13
-337 -11 2 -13 -8 -9 -50 3 -29 3 -47 1 -40 -8 22 -20 12 -15 -13 2 -15 0 -25
-7 -25 -7 0 -10 -4 -7 -9 4 -5 -4 -22 -17 -38 -13 -15 -29 -38 -36 -50 -6 -13
-18 -23 -26 -23 -8 0 -15 -4 -15 -9 0 -14 -45 -61 -57 -61 -6 0 -16 -7 -23
-15 -7 -8 -21 -15 -31 -15 -13 0 -19 -7 -19 -22 0 -17 -3 -19 -9 -9 -10 15
-61 8 -61 -9 0 -6 -19 -10 -43 -10 -24 0 -48 -5 -54 -11 -11 -11 -126 -19
-303 -22 -64 -1 -90 -12 -90 -39 0 -9 2 -10 8 -1 4 6 7 -123 7 -288 0 -192 -4
-299 -10 -300 -5 0 0 -4 12 -9 13 -5 23 -17 23 -25 0 -9 -5 -13 -10 -10 -6 4
-8 11 -5 16 4 5 2 9 -3 9 -5 0 -14 -12 -21 -26 -9 -20 -16 -24 -29 -18 -9 5
-104 10 -211 11 -106 1 -195 4 -198 6 -2 2 -4 421 -4 931 0 798 -2 928 -14
933 -20 7 -9 23 16 23 11 0 19 7 19 18 0 16 22 17 342 14 187 -2 349 -7 358
-12z m1187 8 c-2 -7 2 -21 11 -30 10 -12 11 -18 4 -18 -9 0 -12 -188 -12 -745
l0 -745 291 0 c246 0 293 -2 306 -15 19 -20 26 -355 6 -355 -6 0 -19 -10 -27
-22 -9 -12 -16 -17 -16 -11 0 15 -41 24 -56 12 -9 -7 -19 -7 -34 1 -15 8 -147
10 -464 8 -287 -2 -447 1 -452 7 -8 8 -4 1905 4 1912 1 2 91 4 200 6 108 1
208 3 220 5 15 1 22 -2 19 -10z m3413 -19 c0 -12 52 -8 62 5 3 5 14 2 23 -7 9
-10 13 -17 8 -17 -4 0 0 -5 10 -11 16 -10 15 -13 -13 -49 -17 -22 -30 -48 -29
-57 2 -10 -3 -29 -11 -43 -8 -14 -13 -28 -12 -32 1 -4 -5 -5 -13 -2 -11 5 -15
-1 -15 -24 0 -17 -4 -32 -10 -34 -5 -1 -11 -14 -13 -27 -2 -14 -9 -27 -15 -29
-7 -2 -12 -10 -12 -18 0 -8 -5 -14 -11 -14 -5 0 -8 -4 -5 -8 3 -5 -8 -35 -24
-68 -17 -32 -30 -66 -30 -75 0 -9 -7 -22 -15 -29 -8 -7 -15 -18 -15 -24 0 -18
-24 -66 -32 -66 -5 0 -8 -6 -8 -13 0 -21 -30 -77 -41 -77 -5 0 -9 -4 -9 -10 0
-17 -34 -90 -42 -90 -5 0 -8 -11 -8 -25 0 -16 -6 -25 -15 -25 -10 0 -15 -11
-15 -35 0 -19 -4 -35 -10 -35 -5 0 -10 -7 -10 -15 0 -8 -5 -15 -11 -15 -7 0
-8 -14 -4 -42 7 -38 6 -41 -9 -29 -13 11 -17 11 -23 -5 -3 -11 -11 -22 -17
-26 -8 -5 -12 -138 -14 -411 -3 -338 -1 -406 10 -418 15 -14 13 -89 -1 -89 -4
0 -5 16 -3 35 4 34 -4 43 -23 27 -6 -4 -106 -5 -223 -2 l-213 5 1 391 c0 215
-2 399 -6 408 -3 9 -10 13 -15 10 -14 -8 -23 26 -10 39 14 14 15 40 1 32 -6
-4 -8 -11 -5 -16 3 -5 -1 -6 -9 -3 -18 7 -22 24 -5 24 14 0 0 43 -17 53 -8 4
-14 16 -14 26 0 11 -7 22 -16 25 -13 5 -14 9 -4 21 13 15 8 25 -28 63 -7 8
-10 18 -7 23 4 5 1 9 -5 9 -6 0 -9 4 -6 9 3 5 -1 22 -9 37 -8 16 -15 35 -15
42 0 6 -4 12 -10 12 -5 0 -10 11 -10 25 0 29 -16 34 -23 8 -3 -10 -3 1 0 25 4
28 2 42 -6 42 -6 0 -11 6 -11 14 0 15 -30 77 -41 86 -4 3 -10 19 -13 37 -4 18
-16 50 -26 71 -10 21 -22 50 -25 65 -4 15 -11 27 -16 27 -5 0 -9 9 -9 20 0 11
-4 20 -10 20 -5 0 -10 11 -10 24 0 14 -6 31 -14 38 -7 8 -17 24 -20 36 -4 12
-12 22 -17 22 -5 0 -8 3 -8 8 1 4 1 14 0 22 -1 13 -2 13 -11 0 -7 -11 -8 -6
-4 16 4 23 2 33 -11 37 -10 4 -13 12 -8 19 4 7 8 19 9 26 2 8 4 16 7 18 5 6
475 10 475 4 -1 -3 4 -18 10 -33 7 -16 12 -33 12 -38 0 -5 5 -9 10 -9 6 0 10
-8 8 -17 -2 -10 2 -17 8 -16 7 1 10 -6 7 -18 -5 -18 1 -38 28 -91 5 -10 9 -22
9 -28 0 -5 8 -19 17 -30 11 -12 16 -32 15 -50 -2 -17 3 -36 12 -45 8 -9 21
-35 28 -58 6 -23 15 -44 18 -47 3 -3 14 -33 25 -67 10 -35 22 -63 27 -63 4 0
8 -10 8 -22 1 -18 5 -15 20 16 11 22 20 46 20 53 0 8 7 21 15 29 8 9 15 31 15
51 0 22 7 42 19 52 10 9 21 26 25 39 4 12 12 22 17 22 5 0 9 12 9 26 0 14 -4
23 -10 19 -5 -3 -10 1 -10 9 0 9 5 15 12 14 6 -2 18 11 27 27 9 17 19 32 24
33 4 2 7 17 7 33 0 18 4 28 10 24 6 -4 10 8 10 28 0 22 6 37 15 41 8 3 15 16
15 30 0 14 5 28 10 31 6 3 10 15 10 25 0 10 5 22 11 25 5 4 77 6 160 6 97 -1
149 2 149 9 0 5 5 10 10 10 6 0 10 -5 10 -11z m-4497 -2544 c37 -4 67 -10 67
-14 0 -5 23 -11 52 -14 28 -4 54 -10 57 -14 3 -5 26 -19 51 -32 25 -14 60 -38
78 -55 18 -17 38 -30 43 -28 5 1 9 -7 9 -17 0 -11 9 -23 20 -26 13 -4 20 -15
20 -31 0 -15 6 -24 15 -24 9 0 15 -10 15 -26 0 -14 4 -23 9 -20 10 7 28 -34
37 -86 3 -21 10 -38 14 -38 4 0 10 -12 13 -27 3 -16 10 -48 16 -73 6 -25 10
-62 11 -82 0 -24 5 -38 13 -38 8 0 8 -3 -2 -9 -17 -11 -7 -41 14 -41 20 0 15
-33 -10 -60 -12 -13 -22 -17 -28 -11 -5 5 -19 6 -31 2 -11 -4 -68 -9 -126 -10
-58 -1 -106 -7 -108 -12 -2 -5 -19 -9 -37 -9 -19 0 -37 -5 -41 -11 -3 -6 -16
5 -29 27 -17 28 -23 54 -24 110 -2 67 -17 127 -38 147 -4 5 -8 12 -9 15 -5 40
-77 128 -95 116 -4 -2 -10 0 -14 6 -3 5 -39 10 -79 10 -58 0 -78 -4 -96 -20
-12 -11 -26 -17 -30 -15 -4 3 -10 -4 -13 -15 -3 -10 0 -21 7 -24 6 -2 3 -5 -7
-5 -35 -2 -61 -44 -34 -54 7 -3 5 -6 -5 -6 -10 -1 -18 -8 -18 -16 0 -8 -4 -15
-9 -15 -5 0 -8 -11 -8 -25 0 -14 -6 -38 -13 -55 -7 -17 -10 -46 -7 -65 3 -20
2 -33 -2 -30 -17 10 -23 -54 -27 -270 -3 -138 0 -233 6 -255 6 -19 13 -51 15
-70 8 -58 46 -151 58 -143 5 3 6 -4 2 -16 -4 -12 -2 -21 4 -21 6 0 11 -7 11
-15 0 -8 7 -15 16 -15 8 0 12 -5 9 -10 -3 -6 1 -10 10 -10 9 0 27 -11 41 -25
24 -24 72 -36 59 -15 -4 6 5 10 19 10 14 0 26 -4 26 -10 0 -5 7 -10 15 -10 8
0 15 5 15 10 0 6 11 10 24 10 14 0 31 7 40 15 8 8 18 15 23 15 14 1 63 77 63
99 0 12 4 21 9 21 12 0 24 42 38 140 8 54 9 55 52 69 28 9 45 10 50 3 3 -5 69
-11 156 -13 120 -3 153 -7 166 -20 23 -23 30 -47 14 -52 -7 -3 -18 -36 -24
-79 -7 -40 -18 -88 -26 -106 -8 -18 -15 -40 -15 -48 0 -9 -7 -22 -15 -30 -8
-9 -15 -26 -15 -38 0 -12 -9 -32 -20 -44 -11 -12 -20 -28 -20 -37 0 -8 -7 -15
-15 -15 -9 0 -15 -9 -15 -21 0 -26 -135 -159 -161 -159 -10 0 -24 -9 -32 -20
-8 -11 -17 -17 -20 -13 -4 3 -7 1 -7 -5 0 -7 -3 -11 -7 -11 -5 1 -24 1 -43 0
-31 -1 -33 -3 -17 -15 9 -7 17 -22 16 -32 0 -17 -2 -17 -16 3 -17 25 -80 32
-100 12 -14 -14 -185 -19 -254 -7 -30 5 -69 10 -87 11 -18 1 -36 7 -40 13 -4
6 -22 15 -40 19 -18 3 -30 11 -26 16 3 5 -4 9 -16 9 -12 0 -19 4 -16 9 3 5 -7
11 -22 14 -15 3 -44 21 -64 41 -20 19 -39 32 -42 29 -3 -4 -6 -1 -6 5 0 6 -13
25 -30 42 -16 17 -30 37 -30 45 0 8 -7 15 -15 15 -14 0 -40 45 -37 62 1 5 -2
8 -6 8 -4 0 -8 9 -9 19 -1 11 -13 44 -27 74 -14 29 -26 70 -26 90 0 21 -4 37
-8 37 -11 0 -42 146 -42 197 0 23 -5 43 -11 45 -12 4 -14 362 -2 381 3 6 12
45 19 86 21 125 26 141 37 134 6 -4 8 16 4 59 -5 57 -4 65 11 64 11 -1 18 8
20 22 2 12 8 22 13 22 5 0 9 9 9 20 0 28 21 71 47 99 13 13 23 30 23 37 0 8 6
14 14 14 8 0 17 11 20 25 4 14 10 23 15 20 5 -2 11 2 15 10 3 8 12 15 21 15 8
0 15 7 15 15 0 8 7 15 15 15 8 0 15 5 15 10 0 6 7 10 15 10 8 0 15 3 15 8 0 4
7 16 16 27 12 16 17 17 23 6 7 -10 17 -8 49 13 24 15 56 26 76 26 19 0 36 5
38 10 2 6 32 13 67 15 36 3 67 8 70 11 3 3 26 3 51 0 25 -3 75 -8 113 -11z
m1597 5 c3 0 -4 -6 -15 -12 -19 -11 -19 -11 0 -19 11 -4 35 -8 53 -8 17 -1 32
-5 32 -11 0 -5 11 -10 25 -10 14 0 25 -4 25 -8 0 -4 16 -14 36 -21 19 -7 38
-19 41 -27 3 -8 14 -14 25 -14 11 0 16 -4 12 -11 -4 -8 0 -9 15 -4 18 5 21 2
21 -19 0 -14 7 -27 18 -31 9 -3 27 -25 38 -48 12 -23 27 -41 34 -39 6 1 10 -3
7 -10 -2 -7 4 -35 14 -61 11 -26 19 -59 19 -72 0 -16 6 -25 16 -25 8 0 12 -5
9 -10 -4 -6 -1 -17 5 -25 8 -10 9 -15 2 -15 -7 0 -11 -47 -11 -141 -1 -78 -5
-147 -10 -153 -18 -22 -42 -107 -36 -127 5 -16 3 -20 -12 -17 -11 2 -18 -3
-18 -12 0 -16 -50 -70 -64 -70 -5 0 -11 -9 -14 -21 -3 -11 -15 -23 -26 -26
-12 -3 -21 -11 -21 -18 0 -6 -12 -17 -26 -24 -19 -8 -24 -16 -19 -29 4 -9 12
-30 18 -47 5 -16 13 -32 16 -35 14 -12 41 -70 41 -88 0 -11 5 -22 10 -24 6 -2
12 -13 13 -26 0 -12 4 -22 8 -22 4 0 13 -15 19 -34 6 -19 18 -37 28 -41 13 -5
14 -8 3 -15 -15 -8 -13 -16 18 -66 10 -17 22 -45 26 -62 3 -18 15 -38 24 -44
11 -8 18 -26 18 -46 0 -19 4 -37 10 -40 6 -4 13 -18 15 -32 2 -14 8 -24 13
-23 6 1 11 -12 11 -29 1 -17 7 -33 13 -37 19 -12 15 -124 -4 -128 -6 -1 -9 5
-7 13 2 12 -32 14 -223 14 -193 0 -225 2 -225 15 0 8 -4 15 -9 15 -6 0 -9 8
-9 17 1 10 -8 38 -20 62 -12 24 -19 48 -15 53 3 6 -6 36 -19 67 -31 67 -48
121 -48 146 0 10 -7 26 -15 35 -9 9 -22 48 -30 85 -7 38 -19 71 -25 75 -7 4
-11 10 -11 14 3 23 0 36 -9 31 -6 -4 -10 7 -10 25 0 37 -23 85 -45 94 -9 3
-50 6 -91 6 -59 0 -74 -3 -74 -15 0 -8 6 -15 13 -16 9 0 9 -2 -1 -6 -17 -7
-17 -650 1 -656 7 -2 4 -11 -9 -25 -19 -21 -29 -22 -212 -22 -165 -1 -193 -3
-201 -17 -7 -14 -10 -13 -16 8 -4 13 -12 27 -17 30 -13 8 -11 1883 2 1887 5 2
10 11 10 19 0 12 6 14 28 8 15 -4 137 -10 271 -12 194 -3 246 -2 253 9 8 10
11 10 15 1 3 -9 36 -13 113 -13 98 0 109 2 115 19 5 17 12 19 45 11z m818 -20
c6 0 20 0 30 0 72 0 617 3 787 5 116 1 201 -1 190 -5 -14 -5 -8 -9 25 -14 33
-5 41 -9 30 -16 -8 -5 -10 -10 -5 -10 6 0 9 -45 7 -121 -2 -78 1 -125 8 -134
8 -9 8 -15 0 -20 -6 -3 -8 -10 -6 -14 3 -4 1 -13 -4 -21 -8 -13 -65 -15 -370
-15 l-360 0 0 -202 1 -203 253 0 c142 0 256 4 261 9 6 6 18 3 30 -7 19 -16 20
-29 20 -184 0 -91 -2 -164 -4 -162 -2 2 -13 -3 -22 -12 -17 -15 -48 -16 -279
-12 l-260 5 0 -209 0 -208 343 -1 c188 -1 356 -5 372 -9 17 -4 23 -8 15 -9
-10 -1 -7 -7 10 -17 14 -8 18 -13 9 -11 -13 4 -16 -15 -17 -152 -2 -86 -3
-162 -4 -168 -1 -10 -119 -13 -553 -13 -304 0 -567 -3 -584 -6 -27 -6 -31 -4
-31 15 0 14 -6 21 -20 21 -22 0 -27 18 -7 25 14 6 21 205 6 205 -5 0 -9 316
-8 803 0 457 4 793 9 782 5 -11 9 -14 9 -7 1 7 -4 21 -11 32 -10 16 -8 23 12
44 21 20 32 24 65 20 22 -3 46 -5 53 -4z m2131 -6 c17 -5 22 -4 17 4 -4 7 -1
12 9 12 9 0 13 -4 10 -10 -3 -6 4 -10 17 -10 26 0 90 -71 70 -78 -7 -2 -12
-11 -12 -19 0 -10 6 -13 16 -9 12 4 15 2 10 -9 -3 -8 0 -15 7 -15 7 0 8 -3 2
-8 -16 -11 -16 -63 0 -86 8 -11 15 -31 15 -44 0 -13 6 -29 13 -36 7 -7 19 -47
26 -89 8 -43 18 -77 22 -77 5 0 9 -13 9 -30 0 -16 4 -30 9 -30 5 0 12 -28 16
-62 4 -34 11 -69 15 -78 5 -8 14 -30 20 -47 7 -18 16 -33 21 -33 5 0 9 -18 9
-39 0 -22 5 -43 11 -46 6 -4 8 -14 5 -22 -3 -8 1 -28 10 -45 8 -16 13 -32 10
-35 -2 -3 2 -23 10 -45 8 -22 14 -53 14 -68 0 -16 4 -30 9 -32 5 -1 11 -12 13
-23 1 -11 7 -23 12 -27 5 -3 12 -35 14 -70 3 -44 7 -57 13 -43 5 15 8 8 9 -25
0 -25 7 -54 15 -64 8 -11 15 -26 15 -33 0 -8 9 -23 20 -35 22 -24 27 -64 8
-71 -10 -4 -10 -7 0 -18 6 -7 12 -21 12 -32 0 -10 4 -15 10 -12 6 3 7 -1 4 -9
-8 -20 17 -76 34 -76 9 0 8 -7 -4 -25 -13 -20 -13 -25 -3 -25 11 0 11 -2 -1
-10 -12 -8 -11 -10 8 -10 12 0 22 -4 22 -10 0 -5 -4 -10 -9 -10 -4 0 -6 -11
-3 -25 2 -14 8 -25 13 -25 5 0 9 -18 9 -40 0 -22 5 -40 10 -40 6 0 10 -7 10
-16 0 -12 6 -15 26 -10 19 5 25 3 22 -6 -3 -7 -13 -15 -24 -16 -10 -2 -24 -10
-30 -18 -10 -12 -48 -15 -218 -14 -192 0 -207 1 -226 20 -11 11 -20 29 -20 41
0 11 -4 18 -9 14 -5 -3 -12 -1 -16 5 -3 6 1 13 9 16 21 8 21 60 1 68 -9 3 -15
18 -15 36 0 16 -4 30 -10 30 -5 0 -10 7 -10 15 0 8 -6 15 -12 16 -10 0 -10 2
0 6 13 5 17 43 4 43 -5 0 -9 13 -10 30 0 16 -3 34 -7 40 -4 6 -98 10 -256 10
l-249 0 0 -29 c0 -17 -4 -32 -9 -35 -4 -3 -11 -27 -14 -53 -7 -67 -30 -167
-39 -173 -4 -3 -8 -20 -10 -38 -1 -17 -9 -34 -16 -37 -9 -3 -12 -13 -9 -25 5
-21 -16 -29 -28 -10 -7 12 -345 14 -345 2 0 -4 5 -13 12 -20 7 -7 8 -12 3 -12
-6 0 -23 19 -39 41 -20 29 -34 39 -47 36 -11 -3 -22 -1 -25 4 -5 9 6 12 41 10
19 -1 45 36 45 65 0 6 7 17 15 24 9 8 15 30 15 59 0 25 7 59 15 75 8 15 15 35
15 42 0 8 4 14 8 14 4 0 9 11 10 26 1 14 11 52 22 86 11 33 17 64 14 69 -3 5
0 9 5 9 6 0 11 11 11 25 0 14 4 25 9 25 5 0 12 25 16 56 4 31 15 72 26 91 10
18 19 44 19 56 1 12 10 47 21 77 28 76 31 88 29 96 -1 4 4 10 10 14 7 4 13 28
15 54 1 25 7 52 13 59 5 6 12 23 15 37 3 14 10 39 15 55 6 17 16 57 23 90 13
66 43 138 53 128 3 -3 6 4 6 16 0 12 -4 20 -9 17 -10 -7 -9 20 2 30 4 4 7 19
7 32 0 14 3 22 7 18 9 -9 42 72 42 106 1 15 6 30 11 33 6 3 10 20 10 36 0 16
6 40 14 52 8 12 19 55 26 95 13 82 27 102 73 103 79 2 201 9 203 12 6 5 98 -2
123 -9z m676 5 c9 -13 762 -12 770 1 4 7 51 10 121 9 63 -1 112 -4 109 -7 -3
-3 5 -10 18 -16 12 -6 24 -22 25 -35 2 -15 0 -21 -7 -17 -8 5 -11 -35 -11
-133 0 -91 4 -142 11 -147 8 -4 7 -9 -2 -15 -11 -7 -11 -9 1 -9 8 0 -1 -10
-20 -21 -26 -17 -38 -19 -52 -10 -11 6 -71 10 -163 9 -164 -3 -157 1 -155 -85
0 -26 -1 -70 -4 -98 -3 -45 -3 -46 4 -10 4 22 7 -232 6 -565 0 -333 -4 -585
-7 -560 -4 34 -6 22 -7 -48 -1 -55 3 -100 10 -111 9 -15 8 -22 -8 -39 -18 -20
-31 -21 -179 -22 -191 -2 -205 -4 -205 -36 0 -13 -5 -24 -11 -24 -7 0 -9 10
-5 25 4 15 2 25 -5 25 -6 0 -19 10 -30 23 -18 21 -18 52 -18 762 0 407 0 746
-1 753 0 11 -29 13 -154 8 -85 -3 -158 -6 -163 -7 -4 -1 -18 2 -30 6 -23 7
-23 10 -23 186 0 217 -1 214 107 216 40 1 75 -3 78 -8z m1283 0 c12 0 32 0 45
-1 81 -4 937 -2 937 3 0 3 11 5 25 5 14 0 25 -3 25 -7 0 -4 9 -11 20 -14 19
-6 20 -15 20 -160 0 -161 -3 -185 -26 -185 -8 0 -14 -9 -14 -20 0 -22 -15 -27
-26 -8 -4 7 -3 8 4 4 7 -4 12 -2 12 3 0 8 -90 11 -277 12 -153 1 -303 2 -333
3 -50 1 -55 -1 -58 -22 -2 -13 -8 -20 -14 -16 -8 5 -9 0 -3 -17 13 -38 18
-269 6 -269 -16 0 -13 -36 4 -53 8 -8 11 -18 8 -21 -4 -4 109 -6 250 -6 163 1
259 5 263 11 8 14 44 -45 44 -72 0 -11 -4 -17 -10 -14 -6 4 -10 -34 -9 -107 0
-72 3 -106 9 -93 7 16 9 13 9 -17 1 -21 -3 -38 -8 -38 -5 0 -11 -9 -14 -20 -5
-19 -15 -19 -273 -18 l-269 1 3 -169 c3 -102 0 -180 -6 -196 -8 -20 -8 -29 3
-38 9 -8 114 -11 347 -11 183 0 343 -1 356 -2 21 -1 27 -12 24 -47 0 -8 -2
-81 -2 -163 -2 -134 -4 -148 -21 -157 -12 -7 -214 -10 -568 -10 -505 0 -551
-1 -559 -17 -8 -14 -11 -11 -17 15 -3 18 -11 30 -16 27 -5 -4 -10 376 -11 939
-2 764 -1 946 10 946 7 0 15 7 19 16 4 12 14 14 37 9 17 -3 41 -6 54 -6z
m1619 -1559 c29 0 30 -16 2 -25 -20 -7 -21 -12 -15 -79 3 -39 7 -102 8 -139 1
-48 5 -70 14 -74 18 -7 18 -23 -1 -23 -7 0 -18 -7 -22 -14 -12 -21 -318 -25
-338 -5 -10 10 -15 58 -17 186 -3 165 -2 172 17 177 11 3 77 6 148 6 82 0 127
4 127 11 0 5 4 8 9 4 5 -3 13 0 17 7 5 8 11 5 17 -10 6 -14 19 -22 34 -22z"/>
<path d="M4213 4825 c3 -40 1 -55 -8 -55 -8 0 -15 -23 -20 -65 -3 -36 -11 -65
-17 -65 -7 0 -9 -19 -5 -52 3 -29 3 -45 0 -35 -5 18 -23 24 -23 7 0 -5 5 -21
12 -34 9 -22 8 -29 -7 -46 -9 -10 -20 -40 -22 -65 -4 -29 -10 -45 -19 -45 -11
0 -14 -17 -14 -66 0 -36 -4 -63 -8 -60 -5 3 -9 -1 -9 -9 0 -8 7 -17 16 -20 23
-7 225 0 238 8 6 4 18 4 26 1 9 -3 23 -2 31 3 14 7 14 12 1 36 -8 15 -10 25
-5 22 6 -4 10 -1 10 4 0 6 -4 11 -10 11 -5 0 -10 8 -10 17 0 9 -4 30 -9 47 -5
17 -17 67 -26 111 -10 44 -21 85 -25 90 -5 6 -11 27 -15 48 -6 31 -10 36 -22
26 -12 -11 -13 -8 -7 17 11 42 9 78 -6 126 -34 111 -55 130 -47 43z"/>
<path d="M1345 5050 c-32 -4 -65 -6 -72 -3 -7 3 -13 -1 -13 -8 0 -8 -1 -118
-3 -245 -3 -167 0 -236 8 -248 10 -13 31 -16 104 -16 50 0 91 3 91 8 0 7 37
25 79 37 17 5 20 10 12 18 -15 15 -14 24 4 24 8 0 15 -5 16 -11 0 -6 5 0 10
14 7 17 7 26 0 28 -12 4 -15 23 -3 21 25 -4 32 4 32 40 0 22 5 43 10 46 14 9
13 82 -1 87 -7 2 -12 22 -13 43 -1 32 -5 40 -19 39 -13 -2 -15 1 -7 11 11 13
4 45 -11 45 -5 0 -9 7 -9 15 0 9 -9 15 -25 15 -14 0 -25 3 -25 8 0 13 -42 34
-74 36 -17 2 -58 0 -91 -4z"/>
<path d="M2843 2473 l-23 -4 0 -234 c0 -203 2 -234 16 -239 9 -3 60 -6 115 -6
107 0 159 16 159 48 0 10 3 13 8 7 12 -16 32 -16 32 0 0 8 3 15 8 15 14 0 41
65 44 105 1 22 7 48 12 57 8 12 7 21 -2 30 -6 6 -12 36 -12 65 0 40 -4 53 -15
53 -8 0 -14 3 -14 8 7 40 -21 56 -51 30 -11 -10 -11 -9 0 6 12 15 12 20 2 23
-6 3 -10 8 -7 13 6 9 -20 16 -99 26 -45 5 -57 4 -51 -6 6 -9 3 -9 -13 -1 -33
17 -44 13 -40 -16 2 -14 -2 -28 -9 -30 -6 -2 -13 8 -15 23 -3 29 -10 34 -45
27z"/>
<path d="M5996 2285 c-4 -22 -11 -48 -17 -57 -5 -10 -9 -38 -9 -63 0 -25 -4
-45 -10 -45 -5 0 -10 -12 -10 -27 0 -31 -30 -146 -40 -153 -4 -3 -10 -27 -14
-55 -12 -95 -30 -175 -38 -175 -4 0 -8 -14 -8 -31 l0 -30 153 3 152 3 -2 25
c0 14 -6 43 -13 65 -6 22 -12 50 -13 63 0 12 -5 22 -9 22 -4 0 -8 16 -8 36 0
19 -4 44 -10 54 -5 10 -13 44 -16 76 -4 33 -11 61 -15 64 -4 3 -17 48 -28 100
-11 52 -24 111 -29 130 l-9 35 -7 -40z"/>
</g>
</svg>
