<svg version="1.0" xmlns="http://www.w3.org/2000/svg"
 width="703.000000pt" height="579.000000pt" viewBox="0 0 703.000000 579.000000"
 preserveAspectRatio="xMidYMid meet">
<g transform="translate(0.000000,579.000000) scale(0.100000,-0.100000)"
fill="#000000" stroke="none">
<path d="M40 2890 l0 -2860 2860 0 2860 0 0 175 0 175 165 0 165 0 0 60 0 60
-165 0 -165 0 0 165 0 165 135 0 135 0 0 58 0 57 -132 0 -133 0 -3 147 -3 147
158 3 158 3 3 57 3 57 -158 3 -158 3 -3 2193 -2 2192 -2860 0 -2860 0 0 -2860z
m5680 645 l0 -2176 -177 1 -178 2 0 -489 0 -488 178 -3 177 -2 0 -155 0 -155
-2820 0 -2820 0 0 2820 0 2820 2820 0 2820 0 0 -2175z m0 -2445 l0 -151 -112
3 -113 3 -3 148 -3 147 116 0 115 0 0 -150z m0 -425 l0 -166 -112 3 -113 3 -3
150 c-1 82 0 155 2 162 4 10 35 13 116 13 l110 0 0 -165z"/>
<path d="M702 3090 c-65 -14 -157 -67 -206 -120 -92 -98 -128 -212 -127 -396
0 -146 28 -249 90 -336 122 -169 374 -219 571 -112 94 51 180 177 195 287 l7
47 -61 0 c-50 0 -63 -3 -68 -17 -66 -192 -134 -253 -284 -253 -129 0 -204 39
-258 133 -41 72 -61 155 -61 254 0 142 33 249 98 316 46 48 90 71 164 86 140
29 260 -27 314 -146 l24 -53 60 0 c58 0 60 1 60 26 0 84 -116 226 -217 264
-65 25 -226 36 -301 20z"/>
<path d="M1633 3090 c-165 -33 -266 -184 -233 -347 10 -44 21 -64 54 -98 48
-48 93 -65 301 -115 214 -52 264 -92 252 -198 -10 -92 -83 -141 -220 -149
-172 -11 -273 51 -295 180 l-7 42 -63 3 -62 3 0 -32 c0 -87 63 -200 138 -247
156 -99 439 -81 565 37 92 85 102 265 20 360 -53 62 -85 76 -338 137 -148 36
-190 55 -211 95 -20 40 -14 110 13 148 57 78 220 100 330 45 60 -30 90 -67
102 -127 7 -31 8 -32 69 -35 l62 -3 0 34 c0 49 -26 118 -61 160 -74 90 -259
137 -416 107z"/>
<path d="M2543 3090 c-186 -37 -293 -240 -212 -402 37 -73 87 -98 313 -153
241 -58 271 -78 271 -187 0 -67 -1 -71 -37 -103 -45 -42 -120 -65 -208 -65
-156 0 -248 62 -268 183 l-7 42 -64 3 -64 3 6 -50 c22 -182 168 -293 385 -293
185 0 336 76 377 191 21 60 19 166 -4 217 -41 91 -107 126 -331 180 -182 43
-235 65 -257 107 -19 38 -13 109 14 146 33 45 103 73 186 73 140 1 218 -43
242 -137 l12 -50 63 -3 63 -3 -6 54 c-10 98 -57 163 -154 211 -85 43 -211 57
-320 36z"/>
<path d="M1850 1376 c-215 -48 -350 -247 -350 -514 0 -157 58 -311 147 -393
97 -89 255 -133 401 -111 252 39 401 233 402 523 0 128 -12 189 -57 277 -42
84 -106 148 -187 186 -92 44 -243 57 -356 32z m283 -140 c99 -48 157 -138 177
-274 17 -115 0 -219 -52 -324 -62 -123 -127 -162 -274 -161 -99 0 -149 13
-206 51 -139 92 -184 383 -89 573 32 64 103 126 173 151 78 28 197 21 271 -16z"/>
<path d="M3613 1353 c-3 -6 -3 -164 0 -350 4 -356 8 -387 55 -479 21 -40 81
-102 122 -124 86 -46 250 -55 364 -20 89 28 161 96 197 185 23 59 23 69 27
428 l4 367 -66 0 -65 0 -3 -358 -3 -358 -26 -49 c-34 -67 -88 -103 -168 -115
-134 -19 -220 18 -271 116 l-25 49 -3 357 -3 356 -66 4 c-44 2 -67 -1 -70 -9z"/>
<path d="M402 873 l3 -488 62 -3 63 -3 2 405 3 405 119 -352 c65 -194 128
-376 138 -405 l20 -53 65 3 66 3 136 403 136 403 3 -406 2 -406 63 3 62 3 3
488 2 487 -97 0 -98 0 -134 -398 c-73 -218 -137 -403 -141 -410 -3 -7 -47 108
-99 260 -51 150 -113 335 -139 411 l-46 137 -98 0 -98 0 2 -487z"/>
<path d="M2620 869 l0 -491 248 4 c221 4 253 7 300 26 107 42 181 127 229 264
23 64 26 89 26 208 0 114 -3 145 -22 200 -43 124 -108 201 -211 249 -54 26
-59 26 -312 29 l-258 3 0 -492z m494 361 c54 -16 119 -85 147 -156 21 -52 24
-75 24 -199 0 -124 -3 -147 -24 -199 -32 -80 -99 -147 -166 -166 -32 -9 -101
-14 -195 -15 l-145 0 -3 365 c-1 201 0 371 3 379 4 11 34 13 163 8 86 -3 174
-10 196 -17z"/>
<path d="M4590 870 l0 -490 315 0 315 0 0 60 0 60 -250 0 -250 0 0 430 0 430
-65 0 -65 0 0 -490z"/>
<path d="M6530 1380 c-118 -15 -212 -86 -250 -187 -48 -128 -7 -248 104 -305
21 -11 117 -39 213 -64 193 -48 245 -71 268 -120 54 -115 -30 -219 -189 -231
-191 -15 -287 40 -317 177 l-11 50 -60 0 -61 0 6 -56 c7 -71 47 -153 94 -195
85 -74 232 -110 367 -90 204 30 301 116 313 275 5 60 2 80 -17 124 -43 101
-103 132 -378 197 -62 15 -128 33 -147 41 -104 43 -101 186 5 248 29 18 52 21
140 21 97 0 109 -2 152 -28 52 -30 66 -49 83 -117 l11 -45 57 -3 c69 -4 76 6
59 84 -21 101 -82 165 -197 204 -61 21 -170 30 -245 20z"/>
</g>
</svg>
