<svg version="1.0" xmlns="http://www.w3.org/2000/svg" viewBox="0 0 235.000000 235.000000"
 preserveAspectRatio="xMidYMid meet">
<g transform="translate(0.000000,235.000000) scale(0.100000,-0.100000)"
fill="#D72D00" stroke="none">
<path d="M836 1924 c79 -234 144 -429 144 -432 0 -4 -25 -20 -55 -36 -65 -34
-99 -71 -133 -145 -21 -46 -24 -63 -20 -135 5 -92 19 -126 80 -192 l41 -44
-40 -48 c-59 -70 -164 -155 -244 -197 l-71 -37 -26 19 c-45 33 -73 100 -70
163 3 54 3 55 51 81 105 57 159 140 165 254 5 91 -22 164 -80 224 -60 61 -110
83 -194 89 -91 6 -156 -15 -219 -70 -119 -105 -138 -292 -42 -412 l24 -30 -42
-90 c-68 -146 -87 -216 -92 -346 -8 -184 23 -285 119 -386 59 -63 109 -95 189
-122 179 -62 330 -29 707 152 226 109 326 147 427 165 33 5 105 18 160 27 200
34 301 89 387 212 69 100 89 260 48 382 l-20 60 20 60 c24 73 25 131 3 200
-22 68 -96 150 -161 178 l-49 21 144 423 c78 232 143 426 143 430 0 5 -324 8
-719 8 l-720 0 145 -426z m1113 289 c0 -5 -55 -170 -123 -368 -91 -266 -127
-361 -140 -363 -13 -3 -45 55 -144 258 l-127 262 -130 -261 c-71 -144 -132
-261 -135 -261 -22 1 -46 60 -151 370 -65 194 -119 356 -119 361 0 5 230 9
535 9 294 0 535 -3 534 -7z m-460 -660 l71 -142 -26 -31 c-14 -17 -34 -52 -44
-78 l-18 -47 -54 -3 -55 -3 -12 40 c-6 22 -27 60 -45 84 l-34 44 69 143 c38
79 71 141 73 139 2 -2 36 -68 75 -146z m-1036 -219 c42 -28 77 -90 77 -139 0
-46 -34 -109 -76 -141 -32 -25 -46 -29 -100 -29 -70 0 -102 17 -141 75 -48 69
-39 153 22 215 61 60 144 68 218 19z m670 22 c48 -18 74 -41 98 -88 63 -123
-48 -270 -183 -244 -140 26 -192 191 -93 291 52 52 110 65 178 41z m712 -5
c100 -46 135 -153 80 -247 -44 -76 -137 -103 -221 -65 -57 26 -87 72 -92 141
-5 64 9 99 55 141 53 49 114 60 178 30z m-342 -275 c27 -65 80 -121 145 -153
47 -23 69 -28 132 -27 47 0 89 7 114 17 22 10 42 15 45 11 3 -3 6 -47 6 -97 0
-104 -17 -149 -80 -212 -68 -68 -130 -88 -399 -135 -146 -25 -246 -62 -513
-190 -232 -110 -300 -135 -402 -150 -176 -25 -337 70 -386 227 -14 43 -16 78
-13 161 5 114 20 170 82 305 31 68 36 74 59 70 23 -5 25 -9 29 -86 4 -62 11
-94 30 -132 28 -54 93 -121 146 -151 32 -19 34 -18 94 4 133 48 312 186 400
306 33 46 35 47 94 50 112 5 221 78 264 178 l21 48 57 0 57 0 18 -44z"/>
</g>
</svg>
