<svg version="1.1" xmlns="http://www.w3.org/2000/svg" width="59" height="32" viewBox="0 0 59 32">
<path d="M21.793 0.467c-0.397 0.234-0.841 0.654-0.981 0.888-0.14 0.257-0.514 2.756-0.841 5.559s-0.607 5.115-0.654 5.139c-0.023 0.023-0.911 0.677-1.962 1.472-1.845 1.355-1.939 1.472-1.939 2.336 0 2.429 1.051 5.956 2.453 8.315 0.467 0.747 0.794 1.378 0.747 1.425-0.023 0.047-0.537-0.047-1.098-0.163-1.682-0.374-4.298-1.775-6.073-3.27l-1.635-1.378-1.565 1.285c-2.032 1.658-4.742 3.060-6.68 3.434-1.238 0.234-1.565 0.374-1.565 0.701 0 0.514 0.794 0.537 2.546 0.070 1.728-0.444 3.55-1.378 5.279-2.686 0.794-0.607 1.565-1.168 1.728-1.261 0.14-0.093 0.864 0.304 1.612 0.888 2.639 2.009 5.816 3.41 7.825 3.41 0.491 0 1.051 0.327 1.962 1.168 1.588 1.448 3.574 2.569 6.236 3.504l2.055 0.724 1.682-0.491c2.242-0.677 4.835-2.079 6.68-3.55 1.331-1.074 1.728-1.285 3.13-1.518 1.962-0.327 4.391-1.495 6.517-3.107 0.864-0.654 1.682-1.121 1.845-1.028 0.14 0.093 0.911 0.654 1.705 1.261 1.728 1.308 3.55 2.242 5.279 2.686 1.752 0.467 2.546 0.444 2.546-0.070 0-0.327-0.327-0.467-1.565-0.701-1.939-0.374-4.648-1.775-6.68-3.457l-1.565-1.261-1.472 1.215c-2.196 1.869-4.578 3.13-6.657 3.527l-0.771 0.163 0.607-1.004c1.612-2.569 2.78-6.4 2.639-8.642-0.070-1.191-0.117-1.238-1.472-2.266-0.771-0.584-1.635-1.215-1.915-1.425-0.49-0.327-0.584-0.818-1.121-5.442-0.327-2.803-0.701-5.302-0.841-5.559-0.14-0.234-0.584-0.654-0.981-0.888-0.701-0.444-1.215-0.467-7.521-0.467s-6.82 0.023-7.521 0.467zM36.204 1.168c0.771 0.42 0.958 1.074 1.401 5.092 0.631 5.466 0.701 5.092-0.654 4.251-1.635-1.004-5.349-2.733-6.61-3.060-0.911-0.257-1.261-0.234-2.336 0.117-1.448 0.467-4.999 2.149-6.447 3.060l-1.004 0.607v-0.537c0-1.355 0.934-8.385 1.145-8.806 0.14-0.257 0.444-0.584 0.677-0.701 0.537-0.327 13.244-0.327 13.828-0.023zM28.216 21.746c-2.149 1.869-5.536 3.62-7.334 3.761-0.888 0.070-0.934 0.023-1.892-1.378-1.238-1.869-1.892-3.62-2.382-6.353l-0.374-2.172 0.701-0.584c2.429-1.985 7.311-4.882 9.997-5.933l1.682-0.654 0.070 6.447c0.047 6.4 0.047 6.423-0.467 6.867zM33.775 10.044c1.658 0.794 6.517 3.901 7.988 5.069 0.514 0.42 0.514 0.491 0.28 2.149-0.42 3.060-1.425 5.629-2.92 7.591-0.584 0.771-0.724 0.841-1.495 0.701-1.518-0.28-3.247-1.028-4.975-2.196-3.060-2.055-2.756-1.098-2.756-8.502v-6.423l1.004 0.35c0.537 0.187 1.822 0.747 2.873 1.261zM28.73 26.745v4.088l-1.869-0.677c-1.915-0.701-4.064-1.915-5.185-2.92-0.374-0.327-0.654-0.631-0.654-0.677 0-0.070 0.397-0.163 0.888-0.257 1.168-0.187 3.831-1.495 5.419-2.663 0.701-0.537 1.308-0.958 1.355-0.981 0.023 0 0.047 1.845 0.047 4.088zM34.055 25.32c0.677 0.35 1.752 0.747 2.406 0.934l1.191 0.304-1.004 0.864c-1.121 0.958-4.765 2.85-5.98 3.083l-0.771 0.14v-8.012l1.472 1.028c0.794 0.584 2.009 1.331 2.686 1.658z"></path>
</svg>
