<svg version="1.0" xmlns="http://www.w3.org/2000/svg"
 width="3277.000000pt" height="1106.000000pt" viewBox="0 0 3277.000000 1106.000000"
 preserveAspectRatio="xMidYMid meet">
<g transform="translate(0.000000,1106.000000) scale(0.100000,-0.100000)"
fill="#000000" stroke="none">
<path d="M15070 10745 l0 -145 430 0 430 0 0 -3172 0 -3173 -26 -70 c-197
-536 -466 -896 -779 -1044 -206 -97 -496 -87 -748 27 -320 145 -528 499 -543
922 -13 356 -22 1710 -13 1880 28 529 147 791 405 900 l49 20 -100 -6 c-203
-12 -355 -67 -515 -184 -69 -51 -209 -191 -275 -275 -22 -27 -43 -52 -46 -55
-3 -3 -23 -30 -44 -60 -21 -30 -41 -57 -44 -60 -8 -6 -61 -87 -80 -120 -141
-254 -227 -533 -327 -1065 -77 -411 -58 -839 56 -1240 58 -206 158 -420 241
-520 104 -124 137 -159 200 -210 41 -33 76 -63 79 -66 16 -19 159 -103 240
-141 297 -142 650 -198 957 -152 420 62 732 249 1051 629 38 45 205 296 231
348 13 26 26 47 28 47 2 0 2 -189 1 -419 -2 -231 -1 -421 2 -424 3 -3 488 -3
1078 0 l1072 6 0 149 0 148 -430 0 -430 0 0 3835 0 3835 -1075 0 -1075 0 0
-145z"/>
<path d="M14340 7990 c-278 -24 -584 -123 -823 -266 -179 -107 -473 -366 -618
-544 -266 -325 -505 -755 -680 -1220 -22 -58 -44 -114 -49 -125 -8 -18 -67
-187 -120 -345 -23 -70 -122 -343 -145 -400 -7 -19 -28 -73 -45 -120 -33 -88
-36 -95 -94 -247 -19 -50 -41 -110 -48 -132 -7 -23 -16 -41 -19 -41 -3 0 -21
33 -39 73 -18 39 -57 123 -87 185 -29 62 -53 114 -53 116 0 2 -24 55 -54 117
-29 63 -64 137 -76 164 -58 127 -80 176 -115 250 -21 44 -50 107 -65 140 -15
33 -43 94 -63 135 -19 41 -46 100 -60 130 -29 65 -70 152 -143 309 -30 62 -54
115 -54 117 0 2 -27 60 -60 129 -33 69 -60 127 -60 129 0 2 -24 55 -54 117
-29 63 -64 137 -76 164 -57 125 -80 175 -115 250 -20 44 -55 118 -76 163 -21
46 -39 88 -39 93 0 5 159 9 375 9 293 0 375 3 375 13 0 6 2 70 3 140 1 71 0
133 -4 138 -3 5 -539 8 -1365 7 l-1359 -3 -3 -147 -3 -148 296 0 295 0 9 -22
c5 -13 39 -86 76 -163 37 -77 80 -167 95 -200 15 -33 53 -114 85 -180 59 -123
116 -242 190 -400 23 -49 67 -142 97 -205 31 -63 69 -144 86 -180 47 -100 124
-264 180 -380 65 -136 143 -301 199 -420 69 -145 120 -253 185 -390 33 -69 73
-152 88 -185 15 -33 53 -114 85 -180 59 -123 116 -242 190 -400 23 -49 67
-142 97 -205 31 -63 69 -144 86 -180 30 -66 92 -195 175 -370 24 -52 73 -153
107 -225 35 -71 62 -140 62 -152 -3 -43 -137 -429 -232 -668 -39 -98 -169
-403 -181 -424 -11 -21 -69 -151 -69 -156 0 -5 -68 -151 -145 -310 -107 -221
-191 -352 -251 -392 -39 -25 -68 -10 -125 69 -73 101 -175 199 -250 241 -167
91 -457 95 -621 7 -286 -152 -390 -539 -222 -827 91 -157 293 -286 490 -315
200 -29 416 36 617 187 64 47 237 217 292 285 103 129 262 384 360 579 60 118
155 319 155 326 0 2 14 34 31 72 45 99 55 123 74 178 10 28 21 55 25 60 4 6
15 33 25 60 9 28 23 64 30 80 7 17 22 57 33 90 12 33 44 125 72 205 28 80 62
177 75 215 13 39 33 95 44 125 11 30 40 114 64 185 25 72 66 189 92 260 26 72
52 148 60 170 7 22 41 119 75 215 34 96 67 193 75 215 7 22 34 99 59 170 26
72 58 162 71 200 32 96 85 245 140 400 25 72 57 162 70 200 32 96 85 245 140
400 25 72 57 162 70 200 31 93 83 241 140 400 25 72 55 157 66 190 12 33 27
74 34 90 8 17 25 57 38 90 121 304 342 692 520 915 262 326 557 551 858 654
149 51 214 61 384 61 186 -1 250 -14 401 -81 57 -25 184 -104 211 -131 34 -33
98 -78 136 -96 50 -23 100 -22 182 4 155 48 233 212 178 375 -38 111 -186 211
-398 268 -163 44 -457 64 -665 46z"/>
<path d="M3670 7700 c-310 -49 -533 -139 -760 -309 -70 -52 -233 -207 -290
-276 -31 -37 -150 -204 -150 -210 0 -2 -13 -23 -29 -47 -15 -24 -57 -103 -92
-175 -35 -73 -70 -133 -76 -133 -10 0 -13 117 -13 550 l0 550 -1040 0 -1040 0
0 -150 0 -150 410 0 410 0 0 -2065 0 -2065 -390 0 -390 0 0 -150 0 -150 1348
2 1347 3 3 148 3 147 -331 0 -330 0 0 1169 c0 1355 0 1350 77 1651 13 52 28
112 34 133 5 21 13 45 18 55 5 9 23 55 41 102 66 174 205 413 318 550 46 55
167 178 212 215 51 41 167 112 227 139 102 44 192 59 321 52 247 -13 398 -116
469 -321 41 -116 48 -180 48 -430 0 -132 -1 -932 -3 -1777 l-2 -1538 -310 0
-310 0 0 -150 0 -150 1270 0 1270 0 0 150 0 150 -330 0 -331 0 4 1253 c3 1111
5 1265 20 1367 9 63 21 133 26 155 6 22 19 81 31 130 55 232 158 474 275 650
120 178 308 347 470 421 33 14 67 30 75 34 46 22 191 50 286 56 308 18 468
-86 546 -353 l23 -78 3 -1817 3 -1818 -316 0 -315 0 0 -150 0 -150 1328 2
1327 3 3 148 3 147 -381 0 -380 0 0 1518 c0 1615 -4 1780 -50 2032 -107 592
-416 859 -1080 935 -334 38 -671 3 -887 -91 -17 -8 -34 -14 -38 -14 -16 0
-196 -96 -270 -144 -152 -99 -332 -266 -445 -411 -30 -38 -57 -72 -61 -75 -8
-7 -124 -181 -138 -207 -6 -13 -15 -23 -19 -23 -4 0 -16 24 -26 53 -66 187
-217 420 -359 553 -124 116 -207 172 -353 240 -257 120 -600 163 -914 114z"/>
<path d="M19990 7700 c-185 -26 -378 -78 -545 -147 -84 -35 -223 -103 -270
-132 -66 -42 -79 -50 -95 -57 -54 -26 -301 -226 -399 -323 -131 -131 -169
-173 -250 -281 -200 -266 -332 -525 -426 -835 -109 -361 -134 -762 -69 -1130
31 -176 101 -424 150 -532 8 -17 14 -33 14 -36 0 -13 81 -179 130 -267 82
-148 191 -308 290 -425 82 -97 317 -320 403 -381 17 -13 37 -27 42 -31 56 -44
154 -100 295 -171 136 -67 148 -72 265 -110 230 -75 372 -96 655 -95 520 1
942 105 1310 322 167 99 324 231 456 385 80 93 180 228 193 261 2 6 10 17 17
26 19 21 125 238 167 339 36 87 89 250 102 308 l7 32 -145 0 -145 0 -10 -27
c-5 -16 -24 -68 -42 -118 -35 -96 -121 -280 -167 -357 -15 -25 -41 -68 -57
-95 -80 -132 -273 -350 -403 -454 -240 -192 -493 -307 -802 -366 -111 -22
-435 -24 -536 -4 -178 34 -308 88 -415 171 -167 130 -279 331 -335 602 -45
218 -47 272 -52 1045 l-4 743 1503 2 c1485 3 1503 3 1530 23 61 46 74 207 38
455 -35 236 -80 381 -178 575 -205 404 -566 731 -1022 922 -368 155 -822 217
-1200 163z m443 -235 c386 -58 582 -269 632 -680 7 -55 7 -656 1 -750 -2 -22
-4 -70 -5 -107 l-1 -68 -871 0 -871 0 5 413 c4 322 8 430 21 492 53 269 114
395 250 523 97 90 230 149 411 181 83 15 317 12 428 -4z"/>
<path d="M24965 7700 c-365 -45 -656 -138 -918 -294 -43 -25 -83 -46 -88 -46
-5 0 -9 -3 -9 -8 0 -4 -16 -16 -36 -27 -19 -10 -45 -28 -57 -38 -12 -11 -42
-33 -67 -50 -49 -34 -62 -45 -192 -160 -48 -43 -88 -81 -88 -85 0 -4 -15 -23
-33 -42 -51 -54 -217 -280 -217 -295 0 -2 -20 -37 -44 -78 -162 -274 -297
-654 -358 -1011 -28 -161 -30 -552 -4 -721 52 -341 136 -611 274 -875 40 -76
185 -307 201 -320 3 -3 31 -36 62 -75 67 -83 180 -199 269 -275 35 -30 73 -63
85 -73 48 -43 259 -175 361 -227 346 -174 686 -253 1099 -253 338 0 575 45
860 166 530 224 914 665 1080 1242 25 85 55 225 55 253 0 9 -34 12 -135 12
l-134 0 -11 -42 c-53 -200 -172 -476 -275 -635 -160 -245 -361 -441 -575 -561
-146 -83 -333 -149 -500 -178 -130 -23 -445 -26 -560 -5 -520 93 -730 418
-770 1186 -12 233 -12 1809 0 2030 27 494 134 809 347 1019 37 36 71 66 74 66
4 0 14 7 22 14 26 27 145 85 222 111 168 54 386 69 586 39 345 -51 571 -168
623 -322 38 -111 14 -165 -147 -327 -161 -162 -207 -251 -207 -403 0 -169 57
-311 168 -415 94 -87 200 -136 365 -168 267 -50 437 -2 602 173 81 86 142 195
175 316 25 91 28 297 5 399 -20 86 -69 213 -109 278 -108 179 -230 295 -441
422 -85 51 -139 76 -300 143 -83 34 -292 91 -420 114 -273 49 -570 59 -840 26z"/>
<path d="M29650 7700 c-246 -35 -432 -86 -640 -175 -370 -158 -734 -430 -977
-730 -26 -33 -56 -68 -65 -79 -10 -11 -30 -38 -45 -60 -15 -23 -31 -43 -34
-46 -3 -3 -41 -63 -84 -135 -262 -434 -378 -865 -362 -1350 7 -192 8 -206 37
-360 47 -248 159 -548 279 -745 11 -19 24 -42 28 -50 4 -8 31 -51 61 -95 208
-305 501 -585 797 -761 154 -92 404 -214 438 -214 5 0 23 -6 40 -14 18 -8 48
-19 67 -25 19 -5 67 -18 105 -29 222 -63 392 -85 645 -85 215 0 318 10 510 49
302 63 609 193 880 372 54 36 170 121 180 132 3 3 34 30 70 60 293 246 527
568 694 951 23 53 91 265 109 339 194 799 -48 1650 -648 2279 -409 430 -950
704 -1525 776 -162 19 -400 18 -560 -5z m530 -235 c171 -25 309 -72 415 -143
77 -51 191 -174 232 -249 6 -12 18 -35 27 -50 72 -131 121 -323 154 -608 15
-133 17 -262 17 -1115 0 -834 -3 -990 -18 -1150 -26 -278 -49 -411 -98 -569
-109 -346 -301 -510 -684 -582 -44 -9 -148 -14 -280 -14 -229 0 -332 13 -475
61 -352 119 -527 422 -580 1004 -27 291 -31 513 -27 1375 4 930 5 956 48 1205
21 118 23 128 59 240 110 341 346 537 715 594 120 18 377 19 495 1z"/>
</g>
</svg>
