<svg version="1.0" xmlns="http://www.w3.org/2000/svg"
 width="722.000000pt" height="841.000000pt" viewBox="0 0 722.000000 841.000000"
 preserveAspectRatio="xMidYMid meet">
<g transform="translate(0.000000,841.000000) scale(0.100000,-0.100000)"
fill="#000000" stroke="none">
<path d="M2789 8286 c-2 -2 -17 -6 -34 -9 -16 -3 -48 -9 -70 -15 -22 -6 -75
-13 -117 -16 -43 -3 -91 -12 -107 -21 -17 -8 -50 -15 -73 -15 -24 0 -61 -9
-82 -19 -20 -11 -58 -22 -83 -26 -25 -3 -55 -12 -66 -20 -12 -8 -42 -17 -67
-21 -25 -4 -56 -15 -69 -26 -13 -10 -35 -18 -48 -18 -14 0 -36 -9 -50 -20 -14
-11 -36 -20 -48 -20 -12 0 -28 -7 -35 -15 -7 -8 -27 -17 -45 -21 -19 -3 -41
-14 -50 -24 -10 -11 -30 -22 -46 -25 -16 -4 -29 -11 -29 -15 0 -5 -18 -14 -40
-20 -22 -6 -40 -15 -40 -20 0 -5 -15 -17 -32 -25 -48 -22 -89 -48 -110 -67
-10 -10 -24 -18 -31 -18 -8 0 -22 -9 -32 -20 -10 -11 -23 -20 -28 -20 -6 0
-17 -7 -26 -15 -31 -29 -79 -65 -87 -65 -5 0 -40 -30 -79 -65 -38 -36 -74 -65
-78 -65 -10 0 -250 -243 -323 -326 -70 -80 -94 -111 -129 -164 -17 -25 -35
-49 -41 -55 -7 -5 -33 -44 -59 -85 -26 -41 -56 -87 -66 -102 -11 -15 -19 -31
-19 -35 0 -4 -9 -19 -20 -33 -11 -14 -20 -31 -20 -38 0 -7 -11 -30 -25 -50
-14 -20 -25 -43 -25 -50 0 -7 -9 -22 -20 -34 -11 -12 -20 -30 -20 -39 0 -10
-4 -21 -10 -24 -5 -3 -17 -31 -26 -61 -8 -29 -22 -60 -30 -68 -8 -8 -14 -24
-14 -36 0 -11 -9 -33 -19 -48 -10 -15 -22 -49 -25 -76 -3 -27 -10 -54 -16 -61
-5 -6 -15 -36 -21 -66 -6 -30 -17 -63 -24 -74 -7 -12 -16 -48 -20 -80 -3 -33
-14 -89 -24 -125 -10 -36 -19 -94 -20 -130 -1 -36 -7 -85 -12 -110 -32 -140
-33 -494 -3 -630 7 -30 14 -94 17 -143 3 -49 13 -101 21 -119 9 -17 16 -50 16
-72 0 -49 17 -116 30 -116 5 0 12 -26 15 -57 4 -32 15 -76 26 -99 10 -22 19
-49 19 -60 0 -11 9 -37 20 -59 11 -22 20 -48 20 -58 0 -10 7 -25 15 -33 8 -9
17 -27 21 -42 4 -24 33 -92 55 -132 5 -8 19 -35 32 -60 84 -164 99 -190 107
-190 6 0 12 -11 16 -24 3 -14 14 -32 25 -42 10 -9 19 -25 19 -35 0 -10 9 -23
20 -29 11 -6 20 -17 20 -24 0 -7 9 -23 20 -36 11 -13 20 -26 20 -30 0 -4 18
-26 40 -51 22 -24 40 -47 40 -50 0 -3 8 -15 17 -26 10 -12 32 -37 48 -58 48
-59 284 -295 350 -350 33 -27 67 -55 75 -62 8 -7 44 -36 80 -63 36 -27 73 -56
83 -64 9 -9 23 -16 31 -16 8 0 21 -8 28 -18 7 -10 25 -22 40 -26 16 -3 28 -11
28 -16 0 -5 16 -16 35 -24 19 -8 35 -19 35 -24 0 -6 12 -13 28 -17 15 -4 35
-15 45 -26 10 -10 25 -19 33 -19 9 0 27 -9 41 -20 14 -11 33 -20 43 -20 9 0
25 -9 35 -20 10 -11 28 -20 40 -20 12 0 34 -9 48 -20 14 -11 36 -20 50 -20 13
0 36 -9 50 -20 14 -11 36 -20 50 -20 13 0 35 -8 48 -18 13 -11 44 -22 69 -26
25 -4 54 -13 65 -20 11 -8 45 -17 75 -21 30 -4 65 -13 78 -21 12 -8 53 -19 90
-24 37 -5 92 -16 122 -25 30 -8 82 -15 115 -15 33 0 78 -5 100 -10 66 -16 165
-25 259 -24 75 1 91 4 103 20 11 15 13 161 13 864 l-1 845 73 7 c40 4 93 14
117 22 24 9 59 16 77 16 19 0 51 9 71 20 21 11 47 20 58 20 11 0 34 9 50 20
17 11 40 20 53 20 12 0 30 9 39 20 10 11 25 20 33 20 9 0 31 11 50 25 19 14
38 25 43 25 5 0 31 18 57 40 26 22 50 40 53 40 7 0 22 14 135 124 45 44 82 84
82 90 0 6 16 28 35 49 20 21 42 53 50 70 8 18 40 79 70 136 30 57 55 112 55
123 0 10 8 33 17 51 9 18 20 57 24 87 4 30 14 80 23 110 25 85 22 323 -4 397
-11 32 -20 77 -20 101 0 23 -7 53 -14 65 -8 12 -20 44 -26 70 -6 27 -17 56
-25 64 -8 8 -15 23 -15 32 0 10 -8 29 -19 42 -10 13 -22 35 -26 49 -4 14 -16
33 -26 43 -11 10 -19 26 -19 36 0 9 -10 27 -22 39 -27 24 -39 38 -93 107 -22
28 -62 71 -89 96 -27 24 -60 53 -72 64 -22 21 -37 31 -91 66 -18 12 -33 25
-33 29 0 5 -10 12 -22 16 -13 4 -34 15 -47 25 -13 11 -31 19 -41 19 -9 0 -27
9 -40 20 -13 11 -33 20 -45 20 -12 0 -34 9 -48 20 -14 11 -36 20 -49 20 -13 0
-40 8 -60 18 -20 11 -72 22 -115 26 -83 8 -188 27 -198 37 -3 4 -5 378 -5 833
0 560 -3 833 -10 846 -10 19 -22 20 -174 20 -89 0 -165 -2 -167 -4z m261
-3011 c0 -674 1 -1228 3 -1232 5 -18 -113 -13 -169 7 -32 11 -75 20 -96 20
-39 0 -88 17 -88 32 0 4 -14 8 -30 8 -31 0 -154 52 -164 69 -4 5 -20 12 -36
16 -17 4 -30 11 -30 16 0 5 -12 14 -26 19 -26 10 -141 100 -199 156 -65 62
-187 228 -199 271 -4 11 -13 24 -21 27 -9 3 -15 18 -15 34 0 16 -9 39 -20 52
-11 13 -20 29 -20 37 0 8 -8 30 -19 51 -10 20 -21 60 -24 87 -3 28 -13 64 -21
80 -13 24 -16 68 -16 228 0 172 3 205 20 254 11 32 20 72 20 89 0 17 7 37 15
44 8 7 17 28 21 49 4 20 15 52 25 71 11 19 19 41 19 48 0 7 18 40 40 73 22 33
40 63 40 66 0 10 116 148 161 192 55 54 129 115 148 122 9 4 23 14 30 23 7 9
19 16 26 16 6 0 20 9 30 20 10 11 25 20 32 20 8 0 26 9 40 20 14 11 35 20 45
20 11 0 31 9 45 20 14 11 38 20 52 20 14 0 43 9 63 19 21 12 59 21 94 22 33 1
79 8 104 15 42 12 78 19 108 23 9 1 12 -250 12 -1224z"/>
<path d="M3714 8276 c-3 -8 -4 -27 -2 -43 3 -26 7 -28 59 -34 31 -3 67 -13 80
-23 13 -9 37 -16 54 -16 17 0 48 -9 70 -20 22 -11 51 -20 65 -20 14 0 39 -9
55 -20 17 -11 40 -20 51 -20 12 0 32 -8 45 -18 13 -11 39 -22 57 -25 19 -4 45
-16 59 -27 14 -11 32 -20 40 -20 8 0 26 -9 40 -20 14 -11 33 -20 43 -20 10 0
28 -8 41 -19 13 -10 34 -21 47 -25 12 -4 22 -11 22 -16 0 -5 15 -14 34 -20 19
-6 37 -17 40 -25 3 -8 14 -15 25 -15 11 0 22 -4 26 -9 6 -11 93 -71 101 -71 7
0 113 -83 140 -109 12 -12 26 -21 32 -21 7 0 17 -9 24 -20 7 -11 16 -20 21
-20 21 0 357 -339 357 -360 0 -5 7 -10 15 -10 8 0 15 -4 15 -9 0 -5 7 -17 16
-25 9 -9 32 -40 51 -69 20 -28 42 -56 50 -60 7 -4 13 -14 13 -20 0 -7 9 -20
20 -30 11 -9 20 -23 20 -30 0 -8 9 -22 20 -32 11 -10 20 -24 20 -31 0 -7 6
-17 14 -21 8 -4 21 -24 30 -43 9 -19 25 -48 36 -65 11 -16 27 -43 35 -60 8
-16 19 -37 24 -45 26 -43 111 -228 111 -242 0 -8 6 -21 14 -27 8 -7 17 -28 21
-47 3 -20 15 -50 26 -67 10 -18 19 -43 19 -57 0 -14 9 -43 20 -65 11 -22 20
-57 20 -80 0 -23 8 -53 20 -70 12 -19 20 -47 20 -75 0 -25 7 -58 16 -75 10
-18 20 -73 25 -135 4 -58 13 -121 19 -140 5 -19 10 -56 10 -82 0 -27 3 -48 8
-48 11 0 -5 -520 -18 -560 -6 -19 -15 -82 -19 -140 -5 -62 -15 -117 -25 -135
-9 -16 -16 -49 -16 -73 0 -23 -8 -59 -19 -80 -10 -20 -21 -61 -24 -91 -4 -30
-13 -61 -22 -71 -8 -9 -15 -30 -15 -46 0 -16 -9 -44 -20 -62 -11 -18 -20 -39
-20 -48 0 -16 -37 -102 -70 -166 -11 -20 -20 -43 -20 -51 0 -8 -9 -24 -20 -37
-11 -13 -20 -31 -20 -40 0 -10 -9 -29 -20 -43 -11 -14 -20 -31 -20 -39 0 -7
-9 -24 -20 -38 -11 -14 -20 -30 -20 -36 0 -6 -9 -19 -20 -29 -11 -10 -20 -26
-20 -36 0 -10 -6 -22 -14 -26 -7 -4 -22 -23 -32 -42 -11 -18 -23 -41 -29 -50
-18 -29 -166 -223 -195 -255 -136 -150 -181 -199 -234 -248 -124 -114 -161
-148 -167 -148 -3 0 -25 -18 -50 -40 -24 -22 -47 -40 -50 -40 -3 0 -18 -11
-33 -25 -15 -14 -34 -25 -42 -25 -7 0 -14 -5 -14 -10 0 -6 -12 -16 -27 -23
-15 -6 -36 -20 -45 -29 -10 -10 -24 -18 -31 -18 -8 0 -22 -9 -32 -20 -10 -11
-25 -20 -34 -20 -9 0 -22 -9 -29 -20 -7 -11 -21 -20 -32 -20 -11 0 -28 -9 -37
-20 -10 -11 -27 -20 -39 -20 -11 0 -31 -9 -44 -20 -13 -11 -31 -20 -41 -20
-10 0 -26 -9 -36 -19 -10 -11 -35 -22 -55 -26 -21 -4 -42 -13 -49 -21 -6 -7
-26 -16 -45 -20 -18 -3 -38 -12 -45 -20 -6 -7 -27 -16 -48 -20 -20 -3 -54 -15
-77 -25 -26 -12 -62 -19 -101 -19 -79 0 -97 -15 -87 -74 3 -22 12 -44 18 -49
6 -4 362 -6 791 -5 622 3 786 6 810 17 17 7 73 17 125 21 52 5 109 16 125 24
17 9 46 16 65 16 19 0 51 8 70 19 19 10 51 21 71 25 19 3 53 15 74 26 22 11
48 20 58 20 10 0 30 9 44 20 14 11 32 20 40 20 8 0 26 9 40 20 14 11 33 20 43
20 9 0 25 9 35 20 10 11 27 20 37 20 10 0 21 6 24 14 3 8 19 20 35 26 16 7 29
16 29 21 0 5 15 15 33 23 17 7 49 30 69 50 20 20 39 36 42 36 3 0 16 10 29 23
12 12 36 34 52 48 28 25 115 119 166 179 11 14 27 37 35 52 8 16 19 28 24 28
6 0 10 6 10 13 0 8 9 22 20 32 11 10 20 26 20 35 0 10 8 28 18 41 9 13 22 33
28 44 6 11 16 29 22 40 21 39 62 134 62 145 0 6 9 28 20 50 11 22 20 54 20 72
0 18 9 47 20 63 11 17 20 47 20 70 0 22 9 82 20 134 28 133 28 428 0 551 -11
47 -20 101 -20 120 0 19 -9 52 -20 73 -11 20 -20 52 -20 71 0 19 -6 41 -14 49
-8 7 -21 37 -30 66 -8 28 -22 61 -30 73 -9 12 -16 29 -16 37 0 8 -9 24 -19 35
-11 12 -30 42 -44 68 -24 45 -89 135 -136 187 -13 14 -33 37 -45 51 -29 34
-177 155 -198 163 -10 3 -18 11 -18 17 0 5 -15 17 -32 25 -75 36 -108 56 -108
65 0 6 -10 10 -21 10 -12 0 -38 9 -58 20 -20 11 -65 26 -101 34 l-65 13 43 12
c23 6 42 16 42 21 0 5 10 12 23 16 41 12 247 201 247 227 0 6 7 17 15 26 44
47 65 75 65 86 0 7 9 24 20 38 11 14 20 32 20 40 0 8 9 26 20 40 11 14 20 34
20 44 0 10 9 35 20 55 11 21 26 66 34 100 8 35 19 81 24 103 6 22 18 120 28
218 15 154 16 191 5 285 -7 59 -17 141 -21 183 -5 43 -15 90 -23 105 -8 16
-18 52 -22 79 -4 28 -13 57 -20 65 -7 8 -16 26 -20 40 -6 25 -40 101 -57 130
-5 8 -15 30 -24 49 -8 18 -19 38 -25 45 -5 6 -24 33 -42 61 -17 27 -39 57 -47
66 -8 9 -24 29 -34 45 -27 39 -225 233 -271 264 -20 14 -44 32 -53 41 -9 9
-27 20 -39 23 -13 4 -23 11 -23 17 0 5 -15 15 -34 23 -18 8 -37 19 -40 25 -4
6 -15 11 -25 11 -10 0 -29 8 -42 19 -13 10 -35 22 -49 26 -14 4 -32 13 -40 20
-8 7 -31 15 -51 19 -21 4 -42 13 -49 20 -6 8 -30 18 -53 22 -23 3 -58 15 -77
25 -19 11 -47 19 -63 19 -15 0 -44 7 -65 16 -20 9 -71 20 -112 25 -41 4 -100
15 -130 24 -78 22 -1448 23 -1456 1z"/>
<path d="M604 1711 c-48 -4 -90 -12 -105 -22 -13 -9 -39 -20 -57 -23 -17 -4
-32 -11 -32 -16 0 -5 -15 -14 -34 -20 -19 -6 -37 -17 -40 -25 -3 -8 -11 -15
-18 -15 -12 0 -99 -80 -138 -126 -31 -38 -60 -85 -66 -109 -3 -14 -10 -25 -15
-25 -4 0 -13 -19 -20 -42 -6 -24 -20 -74 -31 -111 -24 -77 -21 -190 6 -268 9
-24 16 -51 16 -59 0 -18 52 -124 63 -128 4 -2 13 -18 21 -35 13 -31 151 -177
167 -177 4 0 20 -11 35 -25 15 -14 35 -25 46 -25 10 0 31 -9 46 -19 15 -10 48
-22 75 -25 26 -3 61 -13 78 -21 42 -22 165 -18 220 6 23 11 57 19 76 19 20 0
46 9 60 20 14 11 34 20 44 20 9 0 24 6 31 13 7 6 36 30 65 51 29 22 54 45 57
53 3 7 12 13 21 13 8 0 15 4 15 9 0 4 11 21 25 37 41 46 44 52 57 81 6 15 19
37 29 48 9 11 19 31 22 45 3 14 12 48 20 75 17 57 22 262 8 315 -23 90 -70
192 -103 223 -10 10 -18 23 -18 30 0 24 -176 177 -202 177 -8 0 -23 9 -33 20
-10 11 -27 20 -38 20 -11 0 -34 8 -51 19 -36 21 -168 31 -302 22z m226 -323
c13 -10 31 -18 39 -18 8 0 23 -8 33 -17 47 -44 88 -89 88 -97 0 -5 7 -17 15
-26 19 -21 37 -106 38 -175 1 -52 -21 -162 -35 -180 -5 -5 -27 -34 -50 -62
-23 -29 -46 -53 -52 -53 -5 0 -19 -8 -30 -18 -12 -11 -54 -25 -94 -32 -89 -16
-213 -1 -248 31 -11 10 -27 19 -35 19 -16 0 -92 83 -118 128 -12 21 -15 58
-15 167 1 129 3 143 25 178 32 51 119 137 139 137 8 0 26 7 38 16 36 25 65 29
154 24 56 -3 91 -11 108 -22z"/>
<path d="M6568 1553 l-3 -158 -66 3 c-94 5 -99 -2 -99 -137 0 -139 5 -146 97
-146 l68 0 3 -359 c2 -273 5 -362 15 -368 14 -9 248 -11 271 -2 14 5 16 47 16
370 l0 364 53 -6 c29 -3 64 -1 80 5 l27 11 0 115 c0 64 -5 125 -10 136 -9 16
-22 19 -80 19 l-69 0 -3 153 -3 152 -147 3 -147 3 -3 -158z"/>
<path d="M4526 1674 c-14 -14 -16 -86 -16 -643 0 -474 3 -630 12 -639 9 -9 86
-12 287 -12 259 0 278 1 306 20 17 11 42 20 56 20 14 0 34 9 44 20 10 11 23
20 29 20 6 0 27 16 46 35 19 20 45 45 57 57 12 11 25 33 28 49 4 15 13 33 21
40 9 7 14 31 14 65 0 41 4 54 15 54 9 0 17 -14 21 -37 5 -34 36 -92 69 -133
36 -44 128 -130 139 -130 7 0 23 -9 36 -20 13 -11 35 -20 49 -20 14 0 40 -9
56 -20 43 -28 179 -28 235 0 22 11 49 20 61 20 11 0 32 9 46 20 14 11 32 20
40 20 35 0 217 175 228 218 4 15 14 35 22 44 20 23 29 108 14 137 -11 19 -20
21 -116 21 -123 0 -151 -9 -170 -52 -14 -34 -78 -108 -93 -108 -5 0 -19 -9
-32 -20 -19 -17 -37 -20 -105 -20 -69 0 -87 3 -110 22 -26 20 -27 22 -9 35 10
7 28 13 40 13 12 0 33 9 47 20 14 11 32 20 40 20 8 0 25 9 39 19 13 11 38 23
54 27 16 4 40 15 53 26 13 10 33 18 43 18 11 0 31 9 45 20 14 11 32 20 40 20
8 0 26 9 40 20 14 11 36 20 48 20 12 0 28 7 35 15 7 8 27 19 44 23 30 8 31 11
31 60 -1 40 -6 56 -23 72 -12 12 -22 25 -22 30 0 16 -44 75 -79 106 -18 16
-41 36 -50 44 -37 33 -98 70 -117 70 -10 0 -32 9 -49 20 -25 17 -47 20 -135
20 -88 0 -110 -3 -135 -20 -16 -11 -42 -20 -56 -20 -15 0 -38 -9 -52 -20 -14
-11 -28 -20 -32 -20 -4 0 -21 -11 -39 -25 -17 -14 -41 -34 -53 -43 -12 -9 -35
-35 -50 -57 -15 -21 -36 -47 -45 -57 -10 -10 -18 -25 -18 -34 0 -9 -9 -27 -20
-41 -16 -21 -20 -41 -20 -104 0 -44 -4 -79 -9 -79 -8 0 -21 27 -36 75 -7 25
-117 115 -139 115 -22 0 -20 27 3 35 22 7 46 40 78 108 29 62 30 138 3 192
-11 22 -20 44 -20 50 0 15 -90 115 -104 115 -6 0 -19 9 -29 20 -9 11 -25 20
-35 20 -10 0 -29 8 -42 17 -30 21 -234 42 -417 43 -98 0 -125 -3 -137 -16z
m404 -292 c61 -18 65 -21 73 -56 10 -41 -5 -91 -32 -105 -9 -5 -43 -10 -76
-12 l-60 -4 -1 90 c-1 50 1 93 3 98 6 11 21 9 93 -11z m1087 -269 c3 -7 -11
-15 -34 -19 -21 -3 -52 -15 -69 -25 -17 -11 -38 -19 -46 -19 -9 0 -27 -9 -41
-20 -14 -11 -32 -20 -40 -20 -8 0 -26 -9 -40 -20 -14 -11 -30 -20 -36 -20 -18
0 -12 36 9 55 11 10 22 25 25 34 5 16 53 50 90 62 33 12 178 5 182 -8z m-993
-214 c6 -9 20 -18 30 -20 28 -6 51 -84 37 -129 -15 -52 -49 -67 -160 -71 l-94
-4 -1 123 -1 124 88 -4 c68 -2 91 -7 101 -19z"/>
<path d="M1825 1400 c-16 -11 -40 -20 -53 -20 -12 0 -25 -7 -28 -15 -9 -23
-33 -18 -40 9 -6 24 -7 24 -139 25 -110 2 -135 -1 -149 -14 -15 -15 -16 -77
-14 -653 l3 -637 149 -3 c83 -1 154 2 159 7 9 9 12 325 2 341 -12 20 18 21 39
1 12 -12 31 -21 42 -21 11 0 35 -8 54 -18 52 -28 166 -29 205 -2 17 11 38 20
47 20 25 0 107 46 143 79 43 41 105 110 105 117 0 3 9 18 20 34 10 15 22 47
26 71 4 24 13 57 19 73 l13 30 21 -44 c11 -24 21 -51 21 -61 0 -9 9 -27 19
-41 11 -13 23 -37 27 -52 3 -14 15 -31 25 -37 11 -5 19 -14 19 -19 0 -12 48
-60 60 -60 5 0 15 -8 22 -19 7 -10 23 -21 34 -25 12 -4 32 -15 44 -26 13 -11
31 -20 40 -20 10 0 37 -9 61 -20 62 -28 185 -28 236 0 21 11 49 20 64 20 14 0
34 9 44 20 10 11 25 20 34 20 9 0 34 13 56 28 49 33 165 151 165 167 0 7 11
29 25 50 22 32 25 46 23 104 l-3 66 -121 0 c-106 0 -125 -3 -143 -19 -12 -11
-21 -25 -21 -33 0 -16 -88 -113 -103 -113 -6 0 -18 -7 -28 -16 -13 -12 -38
-16 -97 -16 -68 0 -85 4 -112 23 -29 22 -30 25 -14 36 10 7 30 13 44 13 15 0
37 9 50 20 13 11 31 20 40 20 10 0 28 9 42 19 13 11 38 23 54 27 16 4 40 15
53 26 13 10 33 18 43 18 11 0 31 9 45 20 14 11 32 20 40 20 8 0 26 9 40 20 14
11 35 20 45 20 11 0 31 9 45 20 14 11 34 20 44 20 16 0 19 8 19 58 0 42 -5 62
-17 73 -10 9 -26 29 -35 45 -38 64 -41 67 -122 138 -16 14 -32 26 -36 26 -4 0
-17 9 -30 20 -13 11 -31 20 -40 20 -10 0 -38 9 -64 21 -62 27 -213 26 -266 -2
-19 -11 -45 -19 -58 -19 -13 0 -36 -9 -50 -21 -15 -11 -57 -43 -94 -71 -38
-28 -68 -57 -68 -64 0 -8 -7 -14 -15 -14 -8 0 -15 -5 -15 -10 0 -6 -11 -28
-25 -50 -14 -22 -25 -44 -25 -50 0 -6 -7 -27 -17 -48 -9 -20 -17 -40 -17 -44
-5 -39 -46 75 -46 129 0 10 -9 24 -20 31 -11 7 -20 17 -20 23 0 36 -167 189
-207 189 -10 0 -31 9 -48 20 -25 17 -47 20 -135 20 -88 0 -110 -3 -135 -20z
m200 -304 c18 -12 43 -36 56 -55 22 -32 24 -44 22 -138 -2 -102 -3 -105 -34
-141 -59 -67 -77 -77 -154 -80 -73 -4 -69 -5 -145 55 -55 44 -75 168 -44 264
20 60 81 115 134 122 59 7 132 -5 165 -27z m1020 19 c0 -5 -20 -17 -45 -25
-25 -8 -54 -20 -65 -26 -11 -6 -32 -14 -47 -18 -16 -3 -28 -10 -28 -15 0 -5
-17 -15 -37 -22 -21 -6 -49 -20 -62 -31 -41 -31 -48 -6 -13 47 30 45 82 88
119 98 33 9 178 2 178 -8z"/>
<path d="M3924 1404 c-37 -25 -81 -34 -95 -18 -9 11 -43 14 -150 14 -126 0
-139 -2 -149 -19 -6 -13 -10 -185 -10 -491 0 -436 1 -472 18 -490 15 -16 33
-19 148 -19 71 0 136 4 144 9 13 8 15 61 17 322 1 209 6 321 14 340 30 72 129
87 191 29 l33 -31 2 -326 c1 -247 4 -329 14 -334 6 -5 72 -9 145 -9 191 -2
175 -39 174 375 -1 309 -2 338 -20 380 -11 25 -20 56 -20 68 0 13 -12 36 -26
52 -62 70 -119 124 -130 124 -6 0 -31 9 -55 20 -56 25 -212 28 -245 4z"/>
</g>
</svg>
