<svg version="1.0" xmlns="http://www.w3.org/2000/svg"
 width="242.000000pt" height="208.000000pt" viewBox="0 0 242.000000 208.000000"
 preserveAspectRatio="xMidYMid meet">
<g transform="translate(0.000000,208.000000) scale(0.100000,-0.100000)"
fill="#6B3277" stroke="none">
<path d="M913 2069 c-237 -31 -436 -130 -608 -304 -204 -205 -299 -435 -297
-720 1 -262 79 -480 239 -670 182 -215 438 -346 727 -370 l79 -6 -6 107 c-4
59 -7 192 -7 295 l0 188 -37 6 c-172 26 -297 116 -366 263 -30 63 -32 73 -32
182 0 114 1 118 37 191 68 137 182 224 331 249 l67 12 0 294 0 294 -32 -1
c-18 -1 -61 -5 -95 -10z"/>
</g>
<g transform="translate(0.000000,208.000000) scale(0.100000,-0.100000)"
fill="#BD016B" stroke="none">
<path d="M1365 2052 c281 -99 500 -299 629 -572 37 -79 80 -223 91 -303 l6
-47 30 21 c46 32 105 112 131 176 19 50 23 76 23 183 0 105 -4 136 -23 193
-48 139 -140 238 -279 303 -123 58 -172 66 -443 70 l-245 4 80 -28z"/>
<path d="M1050 1041 l0 -441 28 0 c50 0 146 30 201 63 146 88 233 275 204 444
-34 196 -189 350 -371 369 l-62 7 0 -442z"/>
<path d="M2087 973 c-20 -422 -304 -804 -707 -950 l-65 -24 295 4 c328 5 358
10 490 74 54 26 95 56 145 107 116 117 165 236 166 401 1 172 -46 302 -145
400 -52 52 -135 105 -165 105 -4 0 -11 -53 -14 -117z"/>
</g>
</svg>

