<svg version="1.0" xmlns="http://www.w3.org/2000/svg"
 width="400.000000pt" height="400.000000pt" viewBox="0 0 400.000000 400.000000"
 preserveAspectRatio="xMidYMid meet">
<g transform="translate(0.000000,400.000000) scale(0.100000,-0.100000)"
fill="#09516B" stroke="none">
<path d="M0 2000 l0 -2000 2000 0 2000 0 0 2000 0 2000 -2000 0 -2000 0 0
-2000z m2220 1770 c172 -20 337 -71 477 -149 l61 -35 6 -130 c3 -72 10 -221
15 -331 5 -110 8 -201 6 -203 -1 -1 -10 21 -20 50 -43 131 -134 267 -259 385
-153 146 -322 212 -543 213 -253 0 -404 -85 -506 -286 -108 -213 -74 -465 82
-606 82 -74 252 -174 593 -350 475 -244 559 -296 673 -413 119 -123 188 -248
222 -406 24 -111 24 -371 1 -475 -92 -406 -493 -743 -955 -805 -174 -23 -469
5 -623 59 -154 54 -468 203 -475 225 -2 7 -6 179 -9 382 l-6 370 26 -75 c53
-154 168 -352 287 -492 101 -119 260 -210 426 -243 119 -25 347 -17 446 15
134 43 217 103 294 214 107 155 146 293 138 481 -8 176 -49 298 -125 371 -68
65 -253 173 -648 376 -287 148 -419 231 -536 334 -225 200 -309 412 -286 723
14 185 81 341 202 469 160 169 426 299 676 332 83 11 264 11 360 0z"/>
</g>
</svg>
