<svg version="1.0" xmlns="http://www.w3.org/2000/svg"
 width="2000.000000pt" height="442.000000pt" viewBox="0 0 2000.000000 442.000000"
 preserveAspectRatio="xMidYMid meet">
<g transform="translate(0.000000,442.000000) scale(0.100000,-0.100000)"
fill="#005783" stroke="none">
<path d="M12983 4346 c-84 -27 -159 -91 -187 -158 -9 -21 -16 -66 -16 -101 0
-129 67 -205 265 -302 129 -63 173 -97 197 -152 34 -78 3 -192 -65 -234 -140
-85 -313 -10 -375 164 -25 70 -36 58 -28 -30 3 -42 6 -96 6 -120 l0 -44 63
-29 c123 -56 271 -64 370 -21 62 27 140 101 166 157 31 65 37 148 17 218 -27
93 -78 139 -258 232 -210 108 -246 150 -218 250 32 113 170 148 283 73 42 -28
74 -66 111 -134 17 -30 17 -29 12 49 -4 43 -6 94 -6 111 0 30 -5 35 -52 55
-66 29 -220 37 -285 16z"/>
<path d="M16346 4349 c-21 -5 -66 -24 -100 -42 -161 -85 -268 -277 -268 -478
0 -169 45 -284 156 -395 77 -77 125 -106 213 -129 158 -41 313 0 438 117 130
121 189 316 156 515 -33 191 -174 355 -350 407 -59 17 -182 20 -245 5z m234
-89 c118 -60 184 -194 196 -400 13 -223 -56 -393 -187 -459 -180 -90 -367 29
-424 271 -19 81 -19 255 0 336 34 143 106 232 217 268 55 18 146 11 198 -16z"/>
<path d="M7853 4322 l27 -28 0 -355 c0 -388 3 -416 58 -498 35 -51 107 -104
176 -128 71 -25 251 -25 322 0 105 36 173 125 194 248 5 35 10 215 10 400 0
325 1 337 21 363 l20 26 -92 0 -92 0 20 -22 c20 -22 22 -37 28 -354 4 -182 5
-356 1 -386 -10 -82 -58 -155 -121 -188 -42 -21 -63 -25 -141 -25 -83 0 -94 2
-139 30 -35 21 -56 45 -74 80 l-26 49 -3 382 -3 383 28 25 28 26 -134 0 -135
0 27 -28z"/>
<path d="M8770 4341 c0 -5 9 -12 20 -16 11 -3 29 -18 40 -32 19 -25 20 -39 20
-488 0 -399 -2 -464 -15 -475 -29 -24 -14 -30 71 -30 l86 0 -26 31 -26 31 0
396 c0 341 2 394 14 382 8 -8 74 -90 148 -181 73 -91 230 -283 348 -426 l215
-262 5 514 c5 470 6 515 23 532 9 11 17 23 17 26 0 4 -36 7 -80 7 -47 0 -80
-4 -80 -10 0 -5 4 -10 10 -10 25 0 31 -85 28 -393 l-3 -318 -295 365 -295 365
-112 1 c-64 0 -113 -4 -113 -9z"/>
<path d="M9860 4343 c0 -3 8 -15 18 -26 16 -18 17 -56 17 -492 0 -436 -1 -474
-17 -492 -10 -11 -18 -23 -18 -26 0 -4 52 -7 115 -7 70 0 115 4 115 10 0 6 -4
10 -8 10 -28 0 -32 62 -32 514 0 454 0 464 21 490 l20 26 -115 0 c-64 0 -116
-3 -116 -7z"/>
<path d="M10170 4342 c0 -5 12 -14 26 -20 32 -15 49 -52 285 -619 101 -243
186 -439 190 -435 3 4 91 230 194 502 202 534 198 524 228 558 l20 22 -93 0
c-90 0 -92 -1 -77 -18 10 -10 17 -25 17 -32 0 -25 -265 -729 -271 -722 -14 16
-269 690 -269 712 0 13 7 32 17 42 16 17 11 18 -125 18 -78 0 -142 -4 -142 -8z"/>
<path d="M11179 4324 c21 -26 21 -36 21 -500 0 -461 -1 -475 -20 -494 -11 -11
-20 -22 -20 -25 0 -3 139 -5 309 -5 l308 0 17 86 c10 47 15 88 13 91 -3 2 -14
-9 -26 -26 -37 -51 -85 -62 -266 -59 l-160 3 -3 223 -2 222 124 0 c119 0 126
-1 155 -26 l31 -26 0 92 0 92 -31 -26 c-29 -25 -36 -26 -155 -26 l-124 0 0
170 0 170 138 0 c149 0 193 -8 229 -41 12 -13 24 -21 26 -18 2 2 2 37 -1 77
l-4 72 -290 0 -289 0 20 -26z"/>
<path d="M11898 4325 c22 -28 22 -31 22 -501 0 -461 -1 -475 -20 -494 -11 -11
-20 -22 -20 -25 0 -3 55 -5 122 -5 l121 0 -24 26 c-24 25 -24 29 -27 240 l-3
214 58 0 c38 0 68 -6 87 -18 18 -11 83 -97 165 -222 163 -244 160 -242 307
-238 l99 3 -47 28 c-55 32 -98 87 -216 276 -91 147 -112 174 -155 201 l-28 17
55 27 c173 84 206 311 62 421 -73 56 -132 67 -365 73 l-214 4 21 -27z m379
-68 c37 -20 79 -65 92 -100 17 -43 13 -127 -8 -172 -37 -81 -101 -115 -216
-115 l-75 0 0 199 c0 199 0 200 23 205 39 8 155 -2 184 -17z"/>
<path d="M13500 4340 c0 -5 4 -10 8 -10 28 0 32 -62 32 -509 0 -443 -1 -459
-20 -484 -11 -14 -20 -28 -20 -31 0 -3 52 -6 115 -6 70 0 115 4 115 10 0 6 -4
10 -8 10 -28 0 -32 62 -32 505 0 443 4 505 32 505 4 0 8 5 8 10 0 6 -45 10
-115 10 -70 0 -115 -4 -115 -10z"/>
<path d="M13810 4275 c0 -41 2 -75 5 -75 3 0 17 12 30 28 23 26 26 27 159 32
l136 5 0 -457 c0 -445 -1 -459 -20 -478 -11 -11 -20 -22 -20 -25 0 -3 52 -5
115 -5 63 0 115 3 115 7 0 3 -8 15 -17 26 -17 17 -18 57 -21 476 l-3 456 135
-5 c132 -5 135 -5 165 -34 l31 -30 0 77 0 77 -405 0 -405 0 0 -75z"/>
<path d="M14650 4343 c1 -5 15 -17 33 -28 22 -14 75 -92 184 -270 l152 -250 1
-222 0 -222 -25 -19 c-14 -11 -25 -23 -25 -26 0 -3 61 -6 136 -6 l136 0 -31
29 -31 29 0 217 0 218 128 239 c121 229 153 278 197 305 16 10 0 12 -89 12
l-109 1 22 -24 23 -24 -88 -169 c-48 -92 -98 -185 -110 -206 l-21 -38 -112
195 c-61 108 -111 205 -111 215 0 10 10 26 23 34 20 15 11 16 -130 16 -84 1
-153 -2 -153 -6z"/>
<path d="M17040 4345 c0 -3 9 -14 20 -25 19 -19 20 -33 20 -495 0 -462 -1
-476 -20 -495 -11 -11 -20 -22 -20 -25 0 -3 55 -5 122 -5 l121 0 -24 26 c-27
28 -27 28 -21 357 l2 157 115 0 c117 0 166 -12 178 -42 3 -7 6 29 6 81 l1 93
-19 -23 c-18 -23 -27 -24 -150 -27 l-131 -4 0 89 c0 48 -3 125 -7 171 l-6 82
154 0 c163 0 218 -9 250 -41 10 -10 21 -19 24 -19 3 0 5 34 5 75 l0 75 -310 0
c-170 0 -310 -2 -310 -5z"/>
<path d="M727 3690 c-78 -14 -186 -49 -262 -87 -266 -133 -395 -330 -395 -603
0 -193 55 -326 189 -460 112 -112 203 -171 509 -330 467 -241 510 -278 543
-467 41 -232 -65 -489 -240 -582 -160 -85 -411 -81 -592 9 -131 66 -282 253
-365 451 -19 46 -39 93 -44 104 -11 25 -13 -207 -3 -428 l6 -158 88 -45 c209
-105 339 -148 498 -165 217 -24 393 4 566 90 234 116 402 311 449 524 34 148
28 323 -14 460 -26 85 -104 200 -184 274 -79 72 -154 116 -486 288 -299 155
-428 234 -493 303 -112 121 -120 321 -19 478 80 123 172 173 332 181 225 11
400 -72 542 -258 49 -64 69 -100 126 -229 9 -19 10 23 5 170 -3 107 -8 228
-12 269 l-6 74 -60 34 c-77 43 -219 88 -318 102 -89 12 -288 13 -360 1z"/>
<path d="M6963 3653 c-123 -25 -223 -49 -223 -52 0 -3 22 -16 49 -27 94 -42
86 84 86 -1284 0 -1337 5 -1248 -68 -1301 l-40 -29 288 0 c159 0 285 4 280 8
-6 4 -27 20 -47 35 -24 18 -41 40 -48 65 -6 24 -10 268 -10 684 l0 646 59 54
c117 106 253 154 411 145 208 -10 318 -101 365 -300 12 -51 15 -167 15 -635 0
-641 2 -618 -71 -671 l-42 -31 284 1 c270 0 283 1 259 17 -13 9 -36 27 -50 39
l-25 21 -6 684 c-4 487 -9 696 -18 727 -52 188 -212 330 -425 376 -120 27
-265 17 -378 -25 -92 -33 -220 -109 -316 -185 l-57 -45 -3 565 -2 565 -23 -1
c-12 -1 -122 -21 -244 -46z"/>
<path d="M5762 2894 l-264 -269 85 -3 86 -3 4 -627 c4 -687 2 -666 66 -797 96
-195 362 -313 593 -264 121 26 261 128 294 215 9 25 14 47 11 50 -3 3 -33 -15
-66 -40 -70 -51 -111 -61 -229 -54 -149 9 -249 83 -294 216 -22 66 -23 75 -26
685 l-3 617 210 0 210 0 70 83 69 82 -274 3 -274 2 -2 187 -3 186 -263 -269z"/>
<path d="M15482 2894 l-262 -269 84 -3 85 -3 4 -627 c4 -688 2 -666 67 -798
95 -194 360 -312 592 -263 121 26 261 128 294 215 9 25 14 47 11 50 -3 3 -33
-15 -66 -40 -70 -51 -111 -61 -229 -54 -176 11 -282 110 -312 291 -6 36 -10
302 -10 645 l0 582 209 0 210 0 70 83 69 82 -274 3 -274 2 -2 187 -3 186 -263
-269z"/>
<path d="M2535 2824 c-270 -58 -510 -269 -619 -547 -61 -154 -70 -207 -70
-407 0 -157 4 -197 22 -262 55 -200 130 -335 257 -464 74 -75 105 -99 175
-133 138 -67 219 -84 400 -84 127 0 169 3 231 21 276 75 491 290 602 599 122
339 41 786 -187 1030 -126 135 -269 215 -444 249 -94 18 -276 17 -367 -2z
m311 -165 c161 -60 287 -251 345 -520 19 -86 23 -136 23 -289 1 -117 -4 -207
-12 -245 -54 -247 -157 -410 -301 -479 -61 -29 -74 -31 -176 -31 -101 0 -115
2 -170 29 -161 79 -289 303 -331 578 -19 123 -13 385 10 488 64 283 196 450
386 490 62 12 160 3 226 -21z"/>
<path d="M3885 2795 c-115 -24 -217 -45 -225 -47 -9 -3 -1 -11 21 -21 51 -25
89 -68 100 -113 4 -22 9 -273 9 -559 0 -304 4 -546 10 -583 29 -175 98 -306
212 -402 202 -170 461 -195 713 -69 130 64 141 77 181 208 19 63 32 116 30
118 -2 3 -30 -16 -61 -41 -277 -226 -608 -136 -708 192 -20 64 -21 95 -25 715
l-3 647 -22 -1 c-12 -1 -116 -21 -232 -44z"/>
<path d="M5060 2796 c-113 -23 -212 -45 -220 -48 -10 -3 0 -11 28 -23 23 -9
53 -31 67 -47 l25 -30 1 -631 c0 -630 8 -890 28 -958 11 -36 62 -96 106 -125
23 -15 33 -12 192 46 92 34 172 65 176 69 5 5 -6 11 -24 15 -49 9 -105 74
-118 136 -7 34 -11 307 -11 845 l0 795 -22 -1 c-13 -1 -115 -20 -228 -43z"/>
<path d="M9320 2830 c-107 -18 -222 -57 -335 -114 l-120 -61 -3 -252 c-1 -167
1 -253 8 -253 5 0 10 6 10 13 0 6 20 56 44 110 135 298 299 419 546 405 140
-9 233 -74 282 -197 18 -47 22 -75 22 -175 l0 -119 -35 -30 c-50 -43 -89 -58
-350 -136 -378 -114 -460 -152 -571 -269 -91 -95 -129 -194 -129 -335 -1 -98
11 -148 56 -238 94 -185 246 -269 465 -255 155 9 273 49 407 139 l63 42 35
105 c19 58 35 108 35 112 0 5 -28 -13 -62 -38 -121 -89 -219 -125 -345 -126
-138 0 -224 49 -276 160 -26 56 -30 76 -30 151 -1 107 24 171 92 234 73 68
160 111 376 182 110 37 212 73 227 81 15 8 31 14 37 14 6 0 11 -167 14 -442 2
-308 7 -454 16 -480 12 -38 103 -138 126 -138 11 0 305 127 314 136 2 2 -5 6
-15 9 -64 21 -83 35 -93 72 -7 25 -11 248 -11 633 -1 645 -4 697 -54 802 -59
126 -202 215 -404 254 -78 15 -266 17 -342 4z"/>
<path d="M10555 2795 c-115 -24 -217 -45 -225 -47 -8 -2 11 -16 44 -32 44 -22
61 -37 72 -62 12 -28 14 -166 14 -799 0 -847 3 -806 -66 -863 l-39 -32 283 0
c155 0 282 2 282 4 0 2 -19 16 -42 32 -22 16 -47 43 -55 61 -10 26 -13 161
-13 692 l0 659 65 60 c117 110 258 156 412 133 190 -28 296 -132 323 -316 5
-40 10 -307 10 -627 0 -629 2 -615 -73 -669 l-40 -29 288 0 289 0 -40 30 c-22
16 -45 40 -52 54 -8 18 -12 216 -13 678 l-2 653 74 76 c124 126 264 176 422
150 134 -22 221 -80 273 -183 53 -105 54 -116 54 -753 0 -570 -1 -591 -20
-620 -11 -16 -36 -42 -57 -57 l-37 -28 284 0 285 0 -39 32 c-69 56 -66 28 -66
737 0 429 -4 658 -11 693 -37 177 -182 326 -379 389 -92 30 -246 36 -343 15
-143 -32 -297 -124 -422 -252 l-63 -65 -33 61 c-63 119 -205 218 -364 256 -96
22 -267 15 -349 -14 -79 -29 -182 -89 -286 -166 l-85 -64 -3 129 c-3 126 -3
129 -25 128 -12 -1 -116 -21 -232 -44z"/>
<path d="M13565 2791 c-247 -56 -247 -56 -220 -66 40 -15 87 -58 101 -91 12
-28 14 -232 14 -1250 0 -1353 5 -1264 -67 -1306 -18 -11 -33 -22 -33 -24 0 -2
127 -4 282 -4 l283 0 -36 24 c-74 50 -69 -35 -69 1224 l0 1129 44 41 c220 202
522 188 725 -34 106 -116 161 -305 161 -554 0 -189 -31 -342 -97 -480 -98
-204 -262 -310 -479 -310 -104 0 -158 17 -239 74 -36 26 -65 43 -65 38 0 -5
12 -41 26 -78 14 -38 35 -92 45 -120 l20 -52 67 -13 c40 -9 125 -14 212 -13
164 2 247 19 372 77 219 102 401 333 484 612 35 119 45 352 21 490 -42 240
-145 436 -295 560 -237 197 -539 231 -810 90 -48 -25 -114 -68 -145 -96 l-57
-51 0 116 c0 104 -2 116 -17 115 -10 0 -112 -22 -228 -48z"/>
<path d="M17045 2824 c-264 -56 -498 -258 -612 -527 -58 -137 -74 -216 -80
-387 -4 -133 -2 -170 16 -259 61 -295 227 -534 446 -642 132 -65 215 -82 395
-82 181 0 262 17 388 83 401 210 594 717 456 1198 -96 335 -327 557 -642 618
-94 18 -277 17 -367 -2z m307 -164 c183 -69 318 -299 363 -620 58 -421 -66
-796 -304 -913 -62 -30 -72 -32 -176 -32 -105 0 -114 2 -177 33 -154 76 -280
292 -323 553 -19 122 -19 350 0 465 51 295 184 481 380 531 64 16 169 9 237
-17z"/>
<path d="M18388 2797 c-120 -22 -218 -44 -218 -48 0 -3 13 -12 29 -19 38 -15
66 -46 86 -92 13 -33 15 -133 15 -785 0 -481 -4 -761 -10 -785 -7 -23 -26 -50
-52 -73 l-42 -35 285 0 284 0 -36 24 c-20 14 -44 37 -55 53 -18 27 -19 57 -22
692 l-3 664 33 35 c56 57 175 130 250 153 89 27 212 23 303 -11 79 -30 164
-113 193 -191 39 -105 43 -186 40 -764 l-3 -550 -24 -33 c-13 -19 -38 -43 -55
-53 -31 -19 -30 -19 254 -19 256 1 283 2 265 16 -51 38 -83 76 -89 105 -3 17
-6 318 -6 668 0 519 -3 646 -15 690 -50 191 -215 338 -430 386 -108 24 -246
17 -344 -18 -91 -32 -212 -104 -302 -180 l-69 -57 0 135 c0 134 0 135 -22 134
-13 -1 -121 -20 -240 -42z"/>
</g>
</svg>
